<svg width="53" height="45" viewBox="0 0 53 45" fill="none" xmlns="http://www.w3.org/2000/svg">
    <g filter="url(#filter0_d_254_78)">
        <path d="M27.5676 0.474123C27.6427 -0.158041 28.56 -0.158041 28.6351 0.474123L29.2643 5.77741C30.0768 12.6254 35.4759 18.0245 42.3239 18.837L47.6271 19.4663C48.2594 19.5413 48.2594 20.4587 47.6271 20.5337L42.3239 21.163C35.4759 21.9755 30.0768 27.3746 29.2643 34.2225L28.6351 39.5258C28.56 40.1581 27.6427 40.1581 27.5676 39.5258L26.9383 34.2225C26.1258 27.3746 20.7267 21.9755 13.8787 21.163L8.57544 20.5337C7.94328 20.4587 7.94328 19.5413 8.57544 19.4663L13.8787 18.837C20.7267 18.0245 26.1258 12.6254 26.9383 5.77741L27.5676 0.474123Z"
              fill="white"/>
    </g>
    <g filter="url(#filter1_d_254_78)">
        <circle cx="4.05063" cy="4.05063" r="4.05063" fill="white"/>
    </g>
    <defs>
        <filter id="filter0_d_254_78" x="8.10132" y="0" width="44.0506" height="44.0506" filterUnits="userSpaceOnUse"
                color-interpolation-filters="sRGB">
            <feFlood flood-opacity="0" result="BackgroundImageFix"/>
            <feColorMatrix in="SourceAlpha" type="matrix" values="0 0 0 0 0 0 0 0 0 0 0 0 0 0 0 0 0 0 127 0"
                           result="hardAlpha"/>
            <feOffset dx="4.05063" dy="4.05063"/>
            <feComposite in2="hardAlpha" operator="out"/>
            <feColorMatrix type="matrix" values="0 0 0 0 1 0 0 0 0 0 0 0 0 0 1 0 0 0 0.8 0"/>
            <feBlend mode="overlay" in2="BackgroundImageFix" result="effect1_dropShadow_254_78"/>
            <feBlend mode="normal" in="SourceGraphic" in2="effect1_dropShadow_254_78" result="shape"/>
        </filter>
        <filter id="filter1_d_254_78" x="0" y="0" width="12.1519" height="12.1519" filterUnits="userSpaceOnUse"
                color-interpolation-filters="sRGB">
            <feFlood flood-opacity="0" result="BackgroundImageFix"/>
            <feColorMatrix in="SourceAlpha" type="matrix" values="0 0 0 0 0 0 0 0 0 0 0 0 0 0 0 0 0 0 127 0"
                           result="hardAlpha"/>
            <feOffset dx="4.05063" dy="4.05063"/>
            <feComposite in2="hardAlpha" operator="out"/>
            <feColorMatrix type="matrix" values="0 0 0 0 1 0 0 0 0 0 0 0 0 0 1 0 0 0 0.8 0"/>
            <feBlend mode="overlay" in2="BackgroundImageFix" result="effect1_dropShadow_254_78"/>
            <feBlend mode="normal" in="SourceGraphic" in2="effect1_dropShadow_254_78" result="shape"/>
        </filter>
    </defs>
</svg>
