<svg width="119" height="25" viewBox="0 0 119 25" fill="none" xmlns="http://www.w3.org/2000/svg">
    <path d="M1.80752 21V3.03729H10.0552C10.9322 3.03729 11.7418 3.21438 12.4839 3.56858C13.2261 3.92277 13.867 4.40346 14.4067 5.01065C14.9464 5.60098 15.3597 6.2672 15.6464 7.00932C15.95 7.75144 16.1018 8.502 16.1018 9.26099C16.1018 9.95251 16.0006 10.6187 15.7982 11.2597C15.5958 11.9006 15.3006 12.4909 14.9127 13.0306C14.5248 13.5535 14.061 14.0089 13.5212 14.3968L17.3162 21H11.9021L8.73961 15.4847H6.74094V21H1.80752ZM6.74094 11.1838H9.85279C10.0552 11.1838 10.2492 11.1079 10.4347 10.9561C10.6202 10.8043 10.772 10.585 10.8901 10.2983C11.025 10.0115 11.0925 9.66578 11.0925 9.26099C11.0925 8.83933 11.0166 8.49357 10.8648 8.2237C10.7298 7.93697 10.5527 7.71771 10.3335 7.56591C10.1311 7.41412 9.92869 7.33822 9.72629 7.33822H6.74094V11.1838ZM33.6354 7.33822H28.4743V21H23.5409V7.33822H18.3544V3.03729H33.6354V7.33822ZM35.1858 11.8668C35.1858 10.7705 35.3882 9.69951 35.793 8.6538C36.2146 7.59121 36.8218 6.62983 37.6146 5.76964C38.4073 4.90946 39.3687 4.22637 40.4987 3.72037C41.6456 3.19752 42.9359 2.93609 44.3695 2.93609C46.0899 2.93609 47.591 3.29871 48.8729 4.02397C50.1547 4.73236 51.1077 5.67688 51.7317 6.85753L47.9621 9.53928C47.7428 8.94896 47.4224 8.49357 47.0007 8.1731C46.5959 7.85264 46.149 7.63338 45.6598 7.51531C45.1876 7.38038 44.7237 7.31292 44.2683 7.31292C43.56 7.31292 42.9443 7.45628 42.4215 7.74301C41.9155 8.01287 41.4938 8.3755 41.1565 8.83089C40.836 9.28629 40.5915 9.79228 40.4228 10.3489C40.271 10.9055 40.1951 11.4621 40.1951 12.0186C40.1951 12.6427 40.2879 13.2415 40.4734 13.8149C40.6589 14.3884 40.9288 14.9028 41.283 15.3582C41.6372 15.7967 42.0673 16.1425 42.5733 16.3955C43.0961 16.6485 43.678 16.775 44.3189 16.775C44.7743 16.775 45.2382 16.7075 45.7104 16.5726C46.1827 16.4208 46.6128 16.1846 47.0007 15.8642C47.3886 15.5437 47.6838 15.1136 47.8862 14.5739L51.9088 16.9774C51.5546 17.8544 50.9643 18.605 50.1379 19.229C49.3114 19.8531 48.3753 20.3338 47.3296 20.6711C46.2839 20.9916 45.2466 21.1518 44.2177 21.1518C42.8853 21.1518 41.6625 20.8904 40.5493 20.3675C39.453 19.8278 38.5 19.1194 37.6905 18.2423C36.8977 17.3484 36.2821 16.3533 35.8436 15.257C35.4051 14.1438 35.1858 13.0138 35.1858 11.8668ZM54.3985 21V16.3449H58.2946V21H54.3985ZM70.2083 21.1518C68.8422 21.1518 67.6025 20.8988 66.4893 20.3928C65.3761 19.87 64.4147 19.1784 63.6051 18.3182C62.8124 17.4412 62.1968 16.4629 61.7583 15.3835C61.3366 14.2872 61.1258 13.1571 61.1258 11.9933C61.1258 10.7958 61.3535 9.65735 61.8089 8.5779C62.2643 7.49845 62.8968 6.53706 63.7063 5.69374C64.5328 4.83356 65.5026 4.1589 66.6158 3.66977C67.7458 3.18065 68.9771 2.93609 70.3095 2.93609C71.6757 2.93609 72.9154 3.19752 74.0286 3.72037C75.1418 4.22637 76.0947 4.91789 76.8874 5.79494C77.6802 6.67199 78.2873 7.65868 78.709 8.75499C79.1475 9.83444 79.3668 10.9476 79.3668 12.0945C79.3668 13.2752 79.1391 14.4052 78.6837 15.4847C78.2452 16.5641 77.6127 17.534 76.7862 18.3941C75.9767 19.2375 75.0153 19.9121 73.9021 20.4181C72.7889 20.9072 71.5577 21.1518 70.2083 21.1518ZM66.1351 12.0439C66.1351 12.6511 66.2194 13.2415 66.3881 13.8149C66.5568 14.3715 66.8098 14.8775 67.1471 15.3329C67.4844 15.7714 67.9061 16.1256 68.4121 16.3955C68.9349 16.6485 69.5506 16.775 70.2589 16.775C70.9673 16.775 71.583 16.64 72.1058 16.3702C72.6287 16.1003 73.0503 15.7377 73.3708 15.2823C73.7081 14.81 73.9527 14.2956 74.1045 13.739C74.2731 13.1656 74.3575 12.5837 74.3575 11.9933C74.3575 11.3862 74.2731 10.8043 74.1045 10.2477C73.9358 9.69108 73.6828 9.19352 73.3455 8.75499C73.0082 8.2996 72.5781 7.94541 72.0552 7.69241C71.5324 7.43942 70.9252 7.31292 70.2336 7.31292C69.5253 7.31292 68.9096 7.44785 68.3868 7.71771C67.8808 7.98757 67.4591 8.3502 67.1218 8.80559C66.7845 9.24412 66.5315 9.75011 66.3628 10.3236C66.211 10.8802 66.1351 11.4536 66.1351 12.0439ZM87.4032 12.1704V21H82.4698V3.03729H86.3153L93.5257 12.1704V3.03729H98.4591V21H94.5377L87.4032 12.1704Z"
          fill="white"/>
    <path d="M103.162 3.53214V21.4679L118.255 12.5L103.162 3.53214Z" fill="white"/>
</svg>
