<svg width="573" height="141" viewBox="0 0 573 141" fill="none" xmlns="http://www.w3.org/2000/svg">
<path fill-rule="evenodd" clip-rule="evenodd" d="M226.297 13.2018H216.634V59.5061H247.179L248.216 51.2051H226.297V13.2018ZM263.585 25.6534H254.506V59.5061H263.585V25.6534ZM263.715 13.2018H254.376V21.3731H263.715V13.2018ZM279.32 25.6534H268.814L282.109 59.5061H291.188L304.548 25.6534H294.496L286.908 49.1947L279.32 25.6534ZM334.192 57.6254C336.656 55.6366 338.191 52.7399 338.797 48.9352H329.977C329.328 51.9617 327.21 53.4749 323.621 53.4749C321.027 53.4749 319.082 52.7183 317.785 51.2051C316.487 49.6486 315.796 47.5085 315.709 44.7847H339.186V41.153C339.186 36.0945 337.867 32.0737 335.23 29.0905C332.636 26.1073 328.744 24.6157 323.556 24.6157C321.049 24.6157 318.757 25.0265 316.682 25.8479C314.607 26.6261 312.813 27.7935 311.299 29.3499C309.829 30.9064 308.684 32.8087 307.862 35.0569C307.041 37.2619 306.63 39.7911 306.63 42.6446C306.63 48.3516 308.035 52.7615 310.845 55.8744C313.699 58.9873 317.936 60.5438 323.556 60.5438C328.226 60.5438 331.771 59.571 334.192 57.6254ZM328.68 33.3708C329.847 34.6678 330.431 36.4837 330.431 38.8183H315.839C315.882 37.7807 316.077 36.8295 316.423 35.9648C316.768 35.0569 317.244 34.2787 317.849 33.6302C318.498 32.9384 319.276 32.398 320.184 32.0089C321.092 31.6198 322.151 31.4252 323.362 31.4252C325.783 31.4252 327.556 32.0737 328.68 33.3708ZM253.21 106.455C254.118 104.423 254.702 102.239 254.961 99.9046H248.8C248.541 101.547 248.13 103.061 247.568 104.444C247.006 105.828 246.228 107.017 245.233 108.011C244.282 109.005 243.05 109.784 241.537 110.346C240.067 110.865 238.273 111.124 236.154 111.124C233.819 111.124 231.744 110.67 229.928 109.762C228.156 108.854 226.642 107.557 225.389 105.871C224.178 104.185 223.248 102.174 222.6 99.8397C221.951 97.4618 221.627 94.8461 221.627 91.9926C221.627 89.1391 221.951 86.5451 222.6 84.2104C223.248 81.8325 224.178 79.8221 225.389 78.1791C226.642 76.493 228.156 75.1959 229.928 74.288C231.744 73.3369 233.798 72.8613 236.089 72.8613C238.035 72.8613 239.678 73.1207 241.018 73.6395C242.401 74.1151 243.569 74.8284 244.52 75.7796C245.514 76.7308 246.314 77.8981 246.919 79.2816C247.568 80.6219 248.087 82.1351 248.476 83.8213L254.313 82.8485C253.837 80.6003 253.145 78.5466 252.237 76.6875C251.373 74.8284 250.205 73.2288 248.735 71.8885C247.309 70.5482 245.558 69.5106 243.482 68.7756C241.407 68.0406 238.943 67.6731 236.089 67.6731C233.149 67.6731 230.404 68.2135 227.853 69.2944C225.345 70.3753 223.162 71.9533 221.303 74.0286C219.444 76.1039 217.995 78.6547 216.958 81.6811C215.92 84.7076 215.401 88.1664 215.401 92.0575C215.401 95.9054 215.877 99.3425 216.828 102.369C217.823 105.352 219.206 107.881 220.979 109.957C222.751 112.032 224.913 113.61 227.464 114.691C230.015 115.772 232.89 116.312 236.089 116.312C239.029 116.312 241.602 115.901 243.807 115.08C246.055 114.258 247.957 113.113 249.514 111.643C251.07 110.173 252.302 108.443 253.21 106.455ZM271.172 114.95C273.16 115.772 275.43 116.182 277.981 116.182C280.489 116.182 282.758 115.772 284.791 114.95C286.823 114.086 288.53 112.875 289.914 111.319C291.341 109.762 292.421 107.881 293.156 105.676C293.935 103.471 294.324 100.985 294.324 98.2184C294.324 95.4946 293.956 93.0519 293.221 90.8901C292.486 88.7284 291.405 86.8909 289.979 85.3777C288.595 83.8213 286.909 82.6323 284.92 81.8109C282.931 80.9894 280.683 80.5787 278.176 80.5787C275.711 80.5787 273.463 81.011 271.431 81.8757C269.442 82.6972 267.734 83.8861 266.308 85.4426C264.881 86.999 263.778 88.8797 263 91.0847C262.222 93.2897 261.833 95.754 261.833 98.4778C261.833 101.202 262.2 103.666 262.935 105.871C263.67 108.076 264.73 109.935 266.113 111.448C267.497 112.961 269.183 114.129 271.172 114.95ZM282.715 110.54C281.418 111.189 279.862 111.513 278.046 111.513C276.23 111.513 274.674 111.189 273.377 110.54C272.08 109.892 271.02 108.984 270.199 107.817C269.377 106.649 268.772 105.266 268.383 103.666C267.994 102.066 267.799 100.294 267.799 98.3481C267.799 96.4026 267.994 94.6299 268.383 93.0303C268.772 91.4306 269.377 90.0687 270.199 88.9446C271.064 87.7772 272.123 86.8693 273.377 86.2208C274.674 85.5723 276.23 85.248 278.046 85.248C279.862 85.248 281.418 85.5723 282.715 86.2208C284.012 86.8693 285.072 87.7772 285.893 88.9446C286.758 90.0687 287.385 91.4306 287.774 93.0303C288.163 94.6299 288.357 96.3809 288.357 98.2833C288.357 100.229 288.163 102.023 287.774 103.666C287.385 105.266 286.758 106.649 285.893 107.817C285.072 108.984 284.012 109.892 282.715 110.54ZM308.11 81.6163H302.533V115.145H308.175V95.1704C308.175 93.3545 308.5 91.9062 309.148 90.8253C309.84 89.7444 310.553 88.8581 311.288 88.1664C313.234 86.3505 315.309 85.4426 317.514 85.4426C319.416 85.4426 320.865 86.0262 321.859 87.1936C322.897 88.3177 323.415 90.3497 323.415 93.2897V115.145H329.058V94.003C329.058 92.6628 329.339 91.4738 329.901 90.4362C330.463 89.3985 331.176 88.5122 332.041 87.7772C333.078 86.9125 334.138 86.3073 335.219 85.9614C336.299 85.6155 337.337 85.4426 338.331 85.4426C339.283 85.4426 340.126 85.5723 340.861 85.8317C341.596 86.0479 342.201 86.4586 342.677 87.0639C343.195 87.6259 343.584 88.4258 343.844 89.4634C344.103 90.4578 344.233 91.7116 344.233 93.2248V115.145H349.875V91.9278C349.875 87.9502 348.967 85.0751 347.151 83.3024C345.379 81.4866 342.849 80.5787 339.564 80.5787C337.359 80.5787 335.283 81.1191 333.338 82.2C331.392 83.2376 329.663 84.794 328.15 86.8693C327.415 84.8373 326.269 83.2808 324.713 82.2C323.199 81.1191 321.189 80.5787 318.681 80.5787C316.779 80.5787 314.92 81.0975 313.104 82.1351C311.288 83.1295 309.624 84.6643 308.11 86.7396V81.6163ZM364.618 81.6163H359.041V127.726H364.683V110.994C366.153 112.94 367.796 114.302 369.611 115.08C371.471 115.815 373.351 116.182 375.254 116.182C377.545 116.182 379.599 115.772 381.414 114.95C383.274 114.086 384.852 112.875 386.149 111.319C387.446 109.762 388.44 107.881 389.132 105.676C389.824 103.428 390.17 100.921 390.17 98.1536C390.17 95.5595 389.867 93.2032 389.262 91.0847C388.7 88.923 387.813 87.0639 386.603 85.5074C385.435 83.951 383.944 82.7404 382.128 81.8757C380.355 81.011 378.28 80.5787 375.902 80.5787C373.438 80.5787 371.276 81.0759 369.417 82.0703C367.601 83.0647 366.001 84.513 364.618 86.4153V81.6163ZM365.331 104.898C364.856 103.342 364.618 101.483 364.618 99.3209V97.0511C364.618 95.1055 364.877 93.3977 365.396 91.9278C365.915 90.4146 366.628 89.1824 367.536 88.2312C368.487 87.2368 369.59 86.5018 370.844 86.0262C372.097 85.5074 373.459 85.248 374.929 85.248C376.097 85.248 377.221 85.4642 378.302 85.8965C379.426 86.3289 380.42 87.0422 381.285 88.0366C382.149 89.031 382.841 90.3713 383.36 92.0575C383.922 93.7004 384.203 95.754 384.203 98.2184C384.203 100.64 383.944 102.693 383.425 104.379C382.949 106.066 382.279 107.449 381.414 108.53C380.55 109.568 379.512 110.324 378.302 110.8C377.134 111.275 375.859 111.513 374.475 111.513C373.049 111.513 371.73 111.297 370.519 110.865C369.309 110.389 368.271 109.654 367.406 108.66C366.542 107.665 365.85 106.411 365.331 104.898ZM406.621 114.95C408.61 115.772 410.88 116.182 413.431 116.182C415.938 116.182 418.208 115.772 420.24 114.95C422.272 114.086 423.98 112.875 425.363 111.319C426.79 109.762 427.871 107.881 428.606 105.676C429.384 103.471 429.773 100.985 429.773 98.2184C429.773 95.4946 429.406 93.0519 428.671 90.8901C427.936 88.7284 426.855 86.8909 425.428 85.3777C424.045 83.8213 422.359 82.6323 420.37 81.8109C418.381 80.9894 416.133 80.5787 413.625 80.5787C411.161 80.5787 408.913 81.011 406.881 81.8757C404.892 82.6972 403.184 83.8861 401.757 85.4426C400.331 86.999 399.228 88.8797 398.45 91.0847C397.672 93.2897 397.282 95.754 397.282 98.4778C397.282 101.202 397.65 103.666 398.385 105.871C399.12 108.076 400.179 109.935 401.563 111.448C402.946 112.961 404.632 114.129 406.621 114.95ZM418.165 110.54C416.868 111.189 415.311 111.513 413.495 111.513C411.68 111.513 410.123 111.189 408.826 110.54C407.529 109.892 406.47 108.984 405.648 107.817C404.827 106.649 404.222 105.266 403.833 103.666C403.443 102.066 403.249 100.294 403.249 98.3481C403.249 96.4026 403.443 94.6299 403.833 93.0303C404.222 91.4306 404.827 90.0687 405.648 88.9446C406.513 87.7772 407.572 86.8693 408.826 86.2208C410.123 85.5723 411.68 85.248 413.495 85.248C415.311 85.248 416.868 85.5723 418.165 86.2208C419.462 86.8693 420.521 87.7772 421.343 88.9446C422.207 90.0687 422.834 91.4306 423.223 93.0303C423.612 94.6299 423.807 96.3809 423.807 98.2833C423.807 100.229 423.612 102.023 423.223 103.666C422.834 105.266 422.207 106.649 421.343 107.817C420.521 108.984 419.462 109.892 418.165 110.54ZM444.533 110.281C442.976 109.33 442.004 107.687 441.614 105.352H436.167C436.297 107.341 436.772 109.027 437.594 110.411C438.415 111.794 439.496 112.918 440.836 113.783C442.176 114.604 443.711 115.21 445.441 115.599C447.213 115.988 449.116 116.182 451.148 116.182C453.396 116.182 455.363 115.923 457.049 115.404C458.735 114.929 460.14 114.258 461.265 113.394C462.389 112.486 463.232 111.448 463.794 110.281C464.356 109.07 464.637 107.752 464.637 106.325C464.637 103.255 463.772 100.921 462.043 99.3209C460.357 97.7212 457.546 96.5971 453.612 95.9486L448.748 95.1704C447.451 94.9542 446.392 94.6948 445.57 94.3921C444.749 94.0895 444.1 93.7436 443.625 93.3545C443.149 92.9222 442.825 92.4466 442.652 91.9278C442.479 91.3657 442.393 90.7388 442.393 90.0471C442.393 89.3985 442.522 88.7933 442.782 88.2312C443.041 87.6259 443.473 87.0855 444.079 86.6099C444.727 86.1343 445.57 85.7668 446.608 85.5074C447.646 85.2048 448.943 85.0535 450.499 85.0535C451.883 85.0535 453.028 85.1832 453.936 85.4426C454.887 85.6587 455.687 86.0046 456.336 86.4802C456.984 86.9125 457.503 87.4746 457.892 88.1664C458.281 88.8581 458.627 89.6579 458.93 90.5659L464.053 89.7228C463.751 88.469 463.318 87.28 462.756 86.1559C462.194 85.0318 461.394 84.0591 460.357 83.2376C459.319 82.4161 457.979 81.7676 456.336 81.292C454.736 80.8165 452.726 80.5787 450.305 80.5787C448.402 80.5787 446.63 80.8165 444.987 81.292C443.387 81.7244 441.982 82.3729 440.771 83.2376C439.604 84.0591 438.674 85.0751 437.983 86.2856C437.334 87.4962 437.01 88.8797 437.01 90.4362C437.01 91.9926 437.248 93.3329 437.723 94.457C438.242 95.5379 438.999 96.4674 439.993 97.2456C440.988 97.9806 442.198 98.5859 443.625 99.0615C445.052 99.5371 446.716 99.9262 448.618 100.229L452.899 100.877C454.152 101.094 455.168 101.375 455.947 101.72C456.725 102.066 457.33 102.477 457.763 102.953C458.195 103.385 458.476 103.904 458.606 104.509C458.779 105.071 458.865 105.676 458.865 106.325C458.865 107.925 458.26 109.222 457.049 110.216C455.882 111.167 453.871 111.643 451.018 111.643C448.294 111.643 446.132 111.189 444.533 110.281ZM478.286 81.6163H472.644V115.145H478.286V81.6163ZM478.48 68.8404H472.449V75.3905H478.48V68.8404ZM484.486 86.0911H489.674V104.25C489.674 105.936 489.782 107.492 489.999 108.919C490.258 110.346 490.734 111.578 491.425 112.616C492.117 113.653 493.047 114.453 494.214 115.015C495.381 115.577 496.916 115.858 498.818 115.858C500.202 115.858 501.391 115.75 502.385 115.534C503.423 115.361 504.374 115.123 505.239 114.821L504.266 110.475C503.661 110.692 502.991 110.865 502.256 110.994C501.564 111.124 500.742 111.189 499.791 111.189C498.278 111.189 497.154 110.692 496.419 109.697C495.684 108.703 495.316 107.384 495.316 105.741V86.0911H504.201V81.6163H495.316V72.4722H489.674V81.6163H484.486V86.0911ZM518.146 114.95C520.135 115.772 522.405 116.182 524.956 116.182C527.464 116.182 529.733 115.772 531.765 114.95C533.797 114.086 535.505 112.875 536.889 111.319C538.315 109.762 539.396 107.881 540.131 105.676C540.909 103.471 541.299 100.985 541.299 98.2184C541.299 95.4946 540.931 93.0519 540.196 90.8901C539.461 88.7284 538.38 86.8909 536.953 85.3777C535.57 83.8213 533.884 82.6323 531.895 81.8109C529.906 80.9894 527.658 80.5787 525.15 80.5787C522.686 80.5787 520.438 81.011 518.406 81.8757C516.417 82.6972 514.709 83.8861 513.282 85.4426C511.856 86.999 510.753 88.8797 509.975 91.0847C509.197 93.2897 508.808 95.754 508.808 98.4778C508.808 101.202 509.175 103.666 509.91 105.871C510.645 108.076 511.704 109.935 513.088 111.448C514.471 112.961 516.158 114.129 518.146 114.95ZM529.69 110.54C528.393 111.189 526.837 111.513 525.021 111.513C523.205 111.513 521.648 111.189 520.351 110.54C519.054 109.892 517.995 108.984 517.174 107.817C516.352 106.649 515.747 105.266 515.358 103.666C514.969 102.066 514.774 100.294 514.774 98.3481C514.774 96.4026 514.969 94.6299 515.358 93.0303C515.747 91.4306 516.352 90.0687 517.174 88.9446C518.038 87.7772 519.098 86.8693 520.351 86.2208C521.648 85.5723 523.205 85.248 525.021 85.248C526.837 85.248 528.393 85.5723 529.69 86.2208C530.987 86.8693 532.046 87.7772 532.868 88.9446C533.733 90.0687 534.359 91.4306 534.749 93.0303C535.138 94.6299 535.332 96.3809 535.332 98.2833C535.332 100.229 535.138 102.023 534.749 103.666C534.359 105.266 533.733 106.649 532.868 107.817C532.046 108.984 530.987 109.892 529.69 110.54ZM555.085 81.6163H549.508V115.145H555.15V95.2352C555.15 93.8085 555.409 92.5547 555.928 91.4738C556.49 90.3929 557.247 89.4418 558.198 88.6203C559.149 87.7556 560.165 87.1503 561.246 86.8045C562.327 86.4153 563.386 86.2208 564.424 86.2208C564.943 86.2208 565.418 86.264 565.851 86.3505C566.283 86.3937 566.715 86.4586 567.148 86.5451L567.861 81.292C567.04 81.1191 566.045 81.0326 564.878 81.0326C562.976 81.0326 561.181 81.5298 559.495 82.5242C557.809 83.5186 556.339 84.9454 555.085 86.8045V81.6163Z" fill="white"/>
<path d="M34.0958 26.9588C36.0776 24.977 36.0776 21.7639 34.0958 19.7822C32.1141 17.8004 28.901 17.8004 26.9192 19.7822L10.2045 36.4969C9.53449 37.0496 8.91993 37.6672 8.37047 38.3401C8.18131 38.5493 8.01267 38.7705 7.86456 39.001C6.31401 41.164 5.40125 43.8152 5.40125 46.6796V110.487C5.40125 117.774 11.3084 123.681 18.5953 123.681H131.608C135.818 123.681 139.568 121.709 141.983 118.638L157.56 103.193C159.55 101.22 159.564 98.0066 157.59 96.0165C155.617 94.0264 152.404 94.0128 150.414 95.9861L144.802 101.551H26.9192L27.5691 33.4855L34.0958 26.9588Z" fill="white"/>
<path d="M195.401 32.4043C195.401 30.4767 194.445 28.6746 192.849 27.5939C191.253 26.5132 189.224 26.2947 187.435 27.0106L156.271 39.4761C153.292 40.6677 151.843 44.0484 153.035 47.0273C154.226 50.0061 157.607 51.455 160.586 50.2635L183.783 40.9846V86.1515L160.586 76.8727C157.607 75.6811 154.226 77.13 153.035 80.1089C151.843 83.0877 153.292 86.4685 156.271 87.66L187.435 100.126C189.224 100.841 191.253 100.623 192.849 99.5422C194.445 98.4616 195.401 96.6595 195.401 94.7319V32.4043Z" fill="white"/>
<path fill-rule="evenodd" clip-rule="evenodd" d="M147.846 27.396H34.8341C33.1525 27.396 31.7893 28.7592 31.7893 30.4408V94.2483C31.7893 95.9299 33.1525 97.2931 34.8341 97.2931H147.846C149.528 97.2931 150.891 95.9299 150.891 94.2483V30.4408C150.891 28.7592 149.528 27.396 147.846 27.396ZM34.8341 17.2467C27.5472 17.2467 21.6401 23.1539 21.6401 30.4408V94.2483C21.6401 101.535 27.5472 107.442 34.8341 107.442H147.846C155.133 107.442 161.041 101.535 161.041 94.2483V30.4408C161.041 23.1539 155.133 17.2467 147.846 17.2467H34.8341Z" fill="white"/>
<path fill-rule="evenodd" clip-rule="evenodd" d="M104.269 46.9447C105.395 44.7557 104.532 42.0688 102.344 40.9434C100.155 39.8179 97.4676 40.68 96.3422 42.869L78.4107 77.7444C77.2852 79.9334 78.1474 82.6203 80.3363 83.7457C82.5253 84.8712 85.2122 84.0091 86.3377 81.8201L104.269 46.9447ZM68.8912 82.5989C67.3349 84.5058 64.5275 84.7901 62.6206 83.2338L44.6396 68.5588C40.7066 65.3489 40.7065 59.3389 44.6396 56.1289L62.6206 41.454C64.5275 39.8977 67.3349 40.1819 68.8912 42.0888C70.4475 43.9957 70.1633 46.8032 68.2564 48.3595L51.1216 62.3439L68.2564 76.3283C70.1633 77.8846 70.4475 80.692 68.8912 82.5989ZM113.788 42.0899C115.345 40.183 118.152 39.8987 120.059 41.455L138.041 56.1299C141.974 59.3398 141.974 65.3501 138.041 68.56L120.059 83.2349C118.152 84.7911 115.345 84.5069 113.788 82.5999C112.232 80.693 112.516 77.8855 114.423 76.3293L131.559 62.3449L114.423 48.3606C112.516 46.8043 112.232 43.9969 113.788 42.0899Z" fill="white"/>
</svg>
