<svg width="96" height="32" viewBox="0 0 96 32" fill="none" xmlns="http://www.w3.org/2000/svg">
<path d="M45.1978 20.37H42.1632V11.415H45.259C46.1481 11.415 46.9118 11.5943 47.5502 11.9529C48.1915 12.3085 48.6841 12.8201 49.0281 13.4876C49.3721 14.1552 49.544 14.9539 49.544 15.8838C49.544 16.8166 49.3706 17.6182 49.0237 18.2887C48.6797 18.9591 48.1827 19.4736 47.5327 19.8322C46.8856 20.1907 46.1072 20.37 45.1978 20.37ZM43.7854 18.9664H45.119C45.7429 18.9664 46.2632 18.8527 46.68 18.6253C47.0969 18.3951 47.4103 18.0525 47.6201 17.5978C47.83 17.1401 47.935 16.5688 47.935 15.8838C47.935 15.1987 47.83 14.6303 47.6201 14.1785C47.4103 13.7237 47.0998 13.3841 46.6888 13.1597C46.2807 12.9323 45.7735 12.8186 45.1671 12.8186H43.7854V18.9664ZM53.945 20.5012C53.2891 20.5012 52.7207 20.3569 52.2397 20.0683C51.7587 19.7797 51.3856 19.376 51.1203 18.8571C50.858 18.3382 50.7268 17.7319 50.7268 17.0381C50.7268 16.3443 50.858 15.7366 51.1203 15.2148C51.3856 14.693 51.7587 14.2878 52.2397 13.9992C52.7207 13.7106 53.2891 13.5663 53.945 13.5663C54.6009 13.5663 55.1693 13.7106 55.6503 13.9992C56.1313 14.2878 56.5029 14.693 56.7653 15.2148C57.0305 15.7366 57.1632 16.3443 57.1632 17.0381C57.1632 17.7319 57.0305 18.3382 56.7653 18.8571C56.5029 19.376 56.1313 19.7797 55.6503 20.0683C55.1693 20.3569 54.6009 20.5012 53.945 20.5012ZM53.9537 19.2331C54.3094 19.2331 54.6067 19.1355 54.8457 18.9402C55.0848 18.7419 55.2626 18.4767 55.3792 18.1444C55.4987 17.812 55.5585 17.4418 55.5585 17.0337C55.5585 16.6227 55.4987 16.2511 55.3792 15.9187C55.2626 15.5835 55.0848 15.3168 54.8457 15.1186C54.6067 14.9204 54.3094 14.8212 53.9537 14.8212C53.5894 14.8212 53.2862 14.9204 53.0443 15.1186C52.8052 15.3168 52.626 15.5835 52.5064 15.9187C52.3898 16.2511 52.3315 16.6227 52.3315 17.0337C52.3315 17.4418 52.3898 17.812 52.5064 18.1444C52.626 18.4767 52.8052 18.7419 53.0443 18.9402C53.2862 19.1355 53.5894 19.2331 53.9537 19.2331ZM61.4362 20.5012C60.7658 20.5012 60.1901 20.3539 59.7091 20.0595C59.231 19.7651 58.8623 19.3585 58.6028 18.8396C58.3463 18.3178 58.2181 17.7173 58.2181 17.0381C58.2181 16.356 58.3492 15.754 58.6116 15.2323C58.8739 14.7076 59.2441 14.2995 59.7222 14.0079C60.2032 13.7135 60.7716 13.5663 61.4275 13.5663C61.9726 13.5663 62.455 13.6669 62.8748 13.868C63.2975 14.0662 63.6342 14.3475 63.8849 14.7119C64.1355 15.0734 64.2784 15.4961 64.3134 15.98H62.8005C62.7393 15.6564 62.5935 15.3868 62.3632 15.171C62.1358 14.9524 61.8312 14.8431 61.4494 14.8431C61.1258 14.8431 60.8416 14.9306 60.5967 15.1055C60.3518 15.2774 60.1609 15.5252 60.0239 15.8488C59.8898 16.1724 59.8228 16.56 59.8228 17.0119C59.8228 17.4695 59.8898 17.8631 60.0239 18.1925C60.158 18.5189 60.346 18.7711 60.588 18.9489C60.8328 19.1238 61.12 19.2113 61.4494 19.2113C61.6826 19.2113 61.891 19.1675 62.0746 19.0801C62.2612 18.9897 62.4171 18.86 62.5425 18.6909C62.6678 18.5219 62.7538 18.3163 62.8005 18.0744H64.3134C64.2755 18.5495 64.1355 18.9708 63.8936 19.3381C63.6517 19.7024 63.3223 19.9881 62.9054 20.1951C62.4886 20.3991 61.9988 20.5012 61.4362 20.5012ZM70.9213 15.429L69.4784 15.5864C69.4376 15.4407 69.3662 15.3037 69.2642 15.1754C69.165 15.0472 69.031 14.9437 68.8619 14.865C68.6928 14.7863 68.4858 14.7469 68.241 14.7469C67.9116 14.7469 67.6347 14.8183 67.4102 14.9612C67.1887 15.104 67.0794 15.2891 67.0823 15.5165C67.0794 15.7118 67.1508 15.8706 67.2965 15.9931C67.4452 16.1155 67.69 16.2161 68.0311 16.2948L69.1767 16.5396C69.8122 16.6766 70.2844 16.8938 70.5934 17.1912C70.9053 17.4885 71.0627 17.8776 71.0656 18.3586C71.0627 18.7813 70.9388 19.1544 70.694 19.478C70.452 19.7986 70.1153 20.0493 69.6839 20.2301C69.2525 20.4108 68.7569 20.5012 68.1973 20.5012C67.3752 20.5012 66.7135 20.3292 66.2121 19.9852C65.7107 19.6383 65.412 19.1559 65.3158 18.5379L66.8593 18.3892C66.9292 18.6924 67.0779 18.9212 67.3053 19.0757C67.5326 19.2302 67.8285 19.3075 68.1929 19.3075C68.5689 19.3075 68.8706 19.2302 69.098 19.0757C69.3283 18.9212 69.4434 18.7303 69.4434 18.5029C69.4434 18.3105 69.3691 18.1516 69.2204 18.0263C69.0747 17.901 68.8473 17.8048 68.5383 17.7377L67.3927 17.4972C66.7485 17.3631 66.2719 17.1372 65.9629 16.8195C65.6539 16.4988 65.5009 16.0936 65.5038 15.6039C65.5009 15.19 65.6131 14.8314 65.8405 14.5283C66.0708 14.2222 66.3899 13.9861 66.7981 13.8199C67.2091 13.6509 67.6828 13.5663 68.2191 13.5663C69.0062 13.5663 69.6256 13.7339 70.0774 14.0692C70.5322 14.4044 70.8135 14.8577 70.9213 15.429Z" fill="black"/>
<rect x="0.8" y="0.8" width="94.4" height="29.4" rx="14.7" stroke="black" stroke-width="1.6"/>
<g clip-path="url(#clip0_2_21)">
<path fill-rule="evenodd" clip-rule="evenodd" d="M16.1113 22.9561C15.311 23.094 14.4898 22.8855 13.8524 22.3824C13.215 21.8793 12.8214 21.129 12.7697 20.3186V11.6096C12.7325 10.6958 13.2883 9.86199 14.1462 9.54487C16.666 8.62017 19.4949 9.32836 21.2816 11.3312V23.7599C20.0839 22.7531 18.0143 22.6923 16.1113 22.9561Z" stroke="black" stroke-width="2.72239" stroke-linecap="round" stroke-linejoin="round"/>
<path fill-rule="evenodd" clip-rule="evenodd" d="M26.4521 22.9561C27.2524 23.094 28.0737 22.8855 28.711 22.3824C29.3484 21.8793 29.742 21.129 29.7937 20.3186V11.6096C29.831 10.6958 29.2752 9.86199 28.4172 9.54487C25.8975 8.62017 23.0686 9.32836 21.2817 11.3312V23.7599C22.4795 22.7531 24.5491 22.6923 26.4521 22.9561Z" stroke="black" stroke-width="2.72239" stroke-linecap="round" stroke-linejoin="round"/>
<path d="M18.2417 16.1597C18.7455 16.1597 19.1537 15.7514 19.1537 15.2477C19.1537 14.7441 18.7455 14.3357 18.2417 14.3357V16.1597ZM15.8098 14.3357C15.3061 14.3357 14.8978 14.7441 14.8978 15.2477C14.8978 15.7514 15.3061 16.1597 15.8098 16.1597V14.3357ZM18.2417 18.5917C18.7455 18.5917 19.1537 18.1834 19.1537 17.6797C19.1537 17.1761 18.7455 16.7677 18.2417 16.7677V18.5917ZM15.8098 16.7677C15.3061 16.7677 14.8978 17.1761 14.8978 17.6797C14.8978 18.1834 15.3061 18.5917 15.8098 18.5917V16.7677ZM26.7537 16.1597C27.2575 16.1597 27.6657 15.7514 27.6657 15.2477C27.6657 14.7441 27.2575 14.3357 26.7537 14.3357V16.1597ZM24.3217 14.3357C23.8181 14.3357 23.4097 14.7441 23.4097 15.2477C23.4097 15.7514 23.8181 16.1597 24.3217 16.1597V14.3357ZM26.7537 18.5917C27.2575 18.5917 27.6657 18.1834 27.6657 17.6797C27.6657 17.1761 27.2575 16.7677 26.7537 16.7677V18.5917ZM24.3217 16.7677C23.8181 16.7677 23.4097 17.1761 23.4097 17.6797C23.4097 18.1834 23.8181 18.5917 24.3217 18.5917V16.7677ZM18.2417 14.3357H15.8098V16.1597H18.2417V14.3357ZM18.2417 16.7677H15.8098V18.5917H18.2417V16.7677ZM26.7537 14.3357H24.3217V16.1597H26.7537V14.3357ZM26.7537 16.7677H24.3217V18.5917H26.7537V16.7677Z" fill="black"/>
</g>
<defs>
<clipPath id="clip0_2_21">
<rect width="31.36" height="29.76" fill="white" transform="translate(9.91998 1.24001)"/>
</clipPath>
</defs>
</svg>
