<?xml version="1.0" encoding="utf-8"?><!-- Uploaded to: SVG Repo, www.svgrepo.com, Generator: SVG Repo Mixer Tools -->
<svg viewBox="0 0 24 24" xmlns="http://www.w3.org/2000/svg">
<path fill-rule="evenodd" clip-rule="evenodd" d="M4.72718 2.71244C5.03258 2.41324 5.46135 2.21816 6.27103 2.11151C7.10452 2.00172 8.2092 2 9.7931 2H14.2069C15.7908 2 16.8955 2.00172 17.729 2.11151C18.5387 2.21816 18.9674 2.41324 19.2728 2.71244C19.5782 3.01165 19.7773 3.43172 19.8862 4.22499C19.9982 5.04159 20 6.12387 20 7.67568V15.5135L7.34563 15.5135C6.44305 15.5132 5.82716 15.513 5.29899 15.6517C4.82674 15.7756 4.38867 15.9781 4 16.2442V7.67568C4 6.12387 4.00176 5.04159 4.11382 4.225C4.22268 3.43172 4.42179 3.01165 4.72718 2.71244ZM7.58621 5.78378C7.12914 5.78378 6.75862 6.1468 6.75862 6.59459C6.75862 7.04239 7.12914 7.40541 7.58621 7.40541H16.4138C16.8709 7.40541 17.2414 7.04239 17.2414 6.59459C17.2414 6.1468 16.8709 5.78378 16.4138 5.78378H7.58621ZM6.75862 10.3784C6.75862 9.93058 7.12914 9.56757 7.58621 9.56757H13.1034C13.5605 9.56757 13.931 9.93058 13.931 10.3784C13.931 10.8262 13.5605 11.1892 13.1034 11.1892H7.58621C7.12914 11.1892 6.75862 10.8262 6.75862 10.3784Z" fill="#1C274D"/>
<path d="M7.47341 17.1351C6.39395 17.1351 6.01657 17.1421 5.72738 17.218C4.93365 17.4264 4.30088 18.0044 4.02952 18.7558C4.0463 19.1382 4.07259 19.4746 4.11382 19.775C4.22268 20.5683 4.42179 20.9884 4.72718 21.2876C5.03258 21.5868 5.46135 21.7818 6.27103 21.8885C7.10452 21.9983 8.2092 22 9.7931 22H14.2069C15.7908 22 16.8955 21.9983 17.729 21.8885C18.5387 21.7818 18.9674 21.5868 19.2728 21.2876C19.4894 21.0753 19.6526 20.8023 19.768 20.3784H7.58621C7.12914 20.3784 6.75862 20.0154 6.75862 19.5676C6.75862 19.1198 7.12914 18.7568 7.58621 18.7568H19.9704C19.9909 18.2908 19.9972 17.7564 19.9991 17.1351H7.47341Z" fill="#1C274D"/>
</svg>
