<svg width="96" height="32" viewBox="0 0 96 32" fill="none" xmlns="http://www.w3.org/2000/svg">
    <rect x="0.8" y="0.8" width="94.4" height="30.4" rx="15.2" stroke="black" stroke-width="1.6" />
    <g clip-path="url(#clip0_2_19)">
        <path fill-rule="evenodd" clip-rule="evenodd"
            d="M20.6489 5.44006C14.7161 5.44006 9.91998 10.2715 9.91998 16.2487C9.91998 21.0265 12.993 25.0709 17.2561 26.5023C17.7891 26.6099 17.9843 26.2697 17.9843 25.9836C17.9843 25.733 17.9667 24.8741 17.9667 23.9792C14.9822 24.6235 14.3607 22.6907 14.3607 22.6907C13.8811 21.4381 13.1704 21.1161 13.1704 21.1161C12.1936 20.454 13.2416 20.454 13.2416 20.454C14.3252 20.5256 14.8937 21.5635 14.8937 21.5635C15.8528 23.2097 17.3982 22.7445 18.0199 22.4581C18.1086 21.7602 18.393 21.2771 18.695 21.0087C16.3146 20.7581 13.8102 19.8277 13.8102 15.6759C13.8102 14.4948 14.2362 13.5286 14.9113 12.777C14.8048 12.5087 14.4317 11.399 15.018 9.91376C15.018 9.91376 15.9239 9.62738 17.9665 11.0232C18.841 10.7866 19.7429 10.6663 20.6489 10.6653C21.5547 10.6653 22.4782 10.7907 23.331 11.0232C25.3738 9.62738 26.2797 9.91376 26.2797 9.91376C26.866 11.399 26.4927 12.5087 26.3862 12.777C27.0791 13.5286 27.4875 14.4948 27.4875 15.6759C27.4875 19.8277 24.9831 20.7401 22.5849 21.0087C22.9758 21.3487 23.3132 21.9928 23.3132 23.0129C23.3132 24.4623 23.2956 25.6256 23.2956 25.9833C23.2956 26.2697 23.4911 26.6099 24.0238 26.5025C28.2869 25.0706 31.3599 21.0265 31.3599 16.2487C31.3775 10.2715 26.5639 5.44006 20.6489 5.44006Z"
            fill="black" />
    </g>
    <path
        d="M43.6823 14.5447C43.6095 14.3086 43.5089 14.0972 43.3806 13.9107C43.2553 13.7212 43.1037 13.5594 42.9259 13.4253C42.751 13.2912 42.5499 13.1907 42.3225 13.1236C42.0951 13.0536 41.8473 13.0187 41.5792 13.0187C41.0982 13.0187 40.6697 13.1396 40.2936 13.3816C39.9176 13.6235 39.6217 13.9792 39.406 14.4485C39.1932 14.9149 39.0868 15.4833 39.0868 16.1538C39.0868 16.8301 39.1932 17.4029 39.406 17.8722C39.6188 18.3415 39.9147 18.6986 40.2936 18.9434C40.6726 19.1854 41.1128 19.3064 41.6141 19.3064C42.0689 19.3064 42.4624 19.2189 42.7947 19.044C43.13 18.8691 43.3879 18.6213 43.5687 18.3007C43.7494 17.9771 43.8398 17.5982 43.8398 17.1638L44.2071 17.2207H41.7759V15.9526H45.4095V17.0283C45.4095 17.7949 45.2463 18.4581 44.9198 19.0178C44.5933 19.5775 44.1444 20.0089 43.573 20.312C43.0017 20.6123 42.3458 20.7624 41.6054 20.7624C40.7804 20.7624 40.0561 20.5773 39.4323 20.2071C38.8114 19.834 38.326 19.3049 37.9762 18.6199C37.6293 17.9319 37.4559 17.1157 37.4559 16.1713C37.4559 15.4483 37.5579 14.8027 37.7619 14.2342C37.9689 13.6658 38.2575 13.1834 38.6277 12.7869C38.9979 12.3876 39.4323 12.0844 39.9307 11.8774C40.4292 11.6676 40.9714 11.5626 41.5573 11.5626C42.0529 11.5626 42.5149 11.6355 42.9434 11.7812C43.3719 11.9241 43.7523 12.1281 44.0846 12.3934C44.4198 12.6587 44.6953 12.9735 44.911 13.3379C45.1267 13.7022 45.2681 14.1045 45.3352 14.5447H43.6823ZM47.329 20.64V13.9238H48.9119V20.64H47.329ZM48.1248 12.9706C47.8741 12.9706 47.6584 12.8875 47.4777 12.7213C47.297 12.5523 47.2066 12.3497 47.2066 12.1136C47.2066 11.8745 47.297 11.6719 47.4777 11.5058C47.6584 11.3367 47.8741 11.2522 48.1248 11.2522C48.3784 11.2522 48.5942 11.3367 48.772 11.5058C48.9527 11.6719 49.0431 11.8745 49.0431 12.1136C49.0431 12.3497 48.9527 12.5523 48.772 12.7213C48.5942 12.8875 48.3784 12.9706 48.1248 12.9706ZM53.8933 13.9238V15.1481H50.0324V13.9238H53.8933ZM50.9856 12.3147H52.5684V18.6199C52.5684 18.8327 52.6005 18.9959 52.6646 19.1096C52.7317 19.2204 52.8191 19.2962 52.927 19.337C53.0348 19.3778 53.1543 19.3982 53.2855 19.3982C53.3846 19.3982 53.475 19.3909 53.5566 19.3763C53.6411 19.3617 53.7053 19.3486 53.749 19.337L54.0157 20.5744C53.9312 20.6035 53.8102 20.6356 53.6528 20.6706C53.4983 20.7056 53.3088 20.726 53.0844 20.7318C52.6879 20.7435 52.3308 20.6837 52.0131 20.5525C51.6954 20.4184 51.4432 20.2115 51.2567 19.9316C51.073 19.6518 50.9827 19.302 50.9856 18.8822V12.3147ZM55.4313 20.64V11.685H57.0535V15.476H61.2031V11.685H62.8297V20.64H61.2031V16.8359H57.0535V20.64H55.4313ZM68.8047 17.8153V13.9238H70.3876V20.64H68.8528V19.4463H68.7829C68.6313 19.8223 68.382 20.1299 68.0352 20.3689C67.6912 20.6079 67.267 20.7274 66.7627 20.7274C66.3226 20.7274 65.9334 20.6298 65.5953 20.4345C65.2601 20.2363 64.9977 19.9491 64.8082 19.5731C64.6188 19.1941 64.524 18.7365 64.524 18.2001V13.9238H66.1069V17.9553C66.1069 18.3808 66.2235 18.719 66.4567 18.9697C66.6899 19.2204 66.9959 19.3457 67.3749 19.3457C67.6081 19.3457 67.834 19.2889 68.0526 19.1752C68.2713 19.0615 68.4505 18.8924 68.5905 18.668C68.7333 18.4406 68.8047 18.1564 68.8047 17.8153ZM72.0852 20.64V11.685H73.6681V15.0344H73.7337C73.8153 14.8712 73.9304 14.6977 74.0791 14.5141C74.2277 14.3275 74.4289 14.1686 74.6825 14.0375C74.9361 13.9034 75.2597 13.8363 75.6532 13.8363C76.1721 13.8363 76.6399 13.969 77.0568 14.2342C77.4765 14.4966 77.8089 14.8857 78.0537 15.4017C78.3015 15.9147 78.4254 16.5444 78.4254 17.2906C78.4254 18.0281 78.3044 18.6549 78.0625 19.1708C77.8205 19.6868 77.4911 20.0803 77.0743 20.3514C76.6574 20.6225 76.1852 20.758 75.6576 20.758C75.2728 20.758 74.9536 20.6939 74.7 20.5657C74.4464 20.4374 74.2423 20.2829 74.0878 20.1022C73.9362 19.9185 73.8182 19.7451 73.7337 19.5818H73.6418V20.64H72.0852ZM73.6375 17.2819C73.6375 17.7162 73.6987 18.0966 73.8211 18.4231C73.9464 18.7496 74.1257 19.0047 74.3589 19.1883C74.595 19.369 74.8807 19.4594 75.2159 19.4594C75.5657 19.4594 75.8587 19.3661 76.0948 19.1796C76.3309 18.9901 76.5088 18.7321 76.6283 18.4056C76.7507 18.0762 76.8119 17.7016 76.8119 17.2819C76.8119 16.865 76.7522 16.4948 76.6326 16.1713C76.5131 15.8477 76.3353 15.5941 76.0992 15.4104C75.8631 15.2268 75.5687 15.135 75.2159 15.135C74.8778 15.135 74.5907 15.2239 74.3546 15.4017C74.1184 15.5795 73.9392 15.8287 73.8167 16.1494C73.6972 16.47 73.6375 16.8475 73.6375 17.2819Z"
        fill="black" />
    <defs>
        <clipPath id="clip0_2_19">
            <rect width="31.36" height="30.72" fill="white" transform="translate(9.91998 1.28)" />
        </clipPath>
    </defs>
</svg>
