<svg width="564" height="115" viewBox="0 0 564 115" fill="none" xmlns="http://www.w3.org/2000/svg">
<path d="M111.396 27.0928H14.3462C9.47356 27.0928 5.52344 29.5703 5.52344 32.6265V93.4973C5.52344 96.5536 9.47356 99.0311 14.3462 99.0311H111.396C116.269 99.0311 120.219 96.5536 120.219 93.4973V32.6265C120.219 29.5703 116.269 27.0928 111.396 27.0928Z" fill="white" stroke="white" stroke-width="10.3153" stroke-linecap="round" stroke-linejoin="round"/>
<path d="M138.593 34.1387L166.261 23.0713V78.4084L138.593 67.341" fill="black"/>
<path d="M138.593 34.1387L166.261 23.0713V78.4084L138.593 67.341" stroke="white" stroke-width="10.3153" stroke-linecap="round" stroke-linejoin="round"/>
<path d="M126.864 14.7716H29.0666C24.1565 14.7716 20.1759 17.2492 20.1759 20.3054V81.1762C20.1759 84.2325 24.1565 86.7099 29.0666 86.7099H126.864C131.774 86.7099 135.754 84.2325 135.754 81.1762V20.3054C135.754 17.2492 131.774 14.7716 126.864 14.7716Z" fill="black" stroke="white" stroke-width="10.3153" stroke-linecap="round" stroke-linejoin="round"/>
<path d="M21.7852 16.1914L6.81687 29.7645" stroke="white" stroke-width="10.3153" stroke-linecap="round"/>
<path d="M135.092 83.3429L120.22 96.044" stroke="white" stroke-width="10.3153" stroke-linecap="round"/>
<path d="M100.961 35.2607L116.926 48.2898C118.478 49.5564 118.478 51.928 116.926 53.1946L100.961 66.2237" stroke="white" stroke-width="7.9137" stroke-linecap="round" stroke-linejoin="round"/>
<path d="M54.9678 66.2227L39.0035 53.1936C37.4515 51.927 37.4515 49.5554 39.0035 48.2888L54.9678 35.2597" stroke="white" stroke-width="7.9137" stroke-linecap="round" stroke-linejoin="round"/>
<path d="M85.9248 35.2598L70.0045 66.2237" stroke="white" stroke-width="7.9137" stroke-linecap="round"/>
<path d="M215.377 0.133155H225.04V38.1364H246.96L245.922 46.4375H215.377V0.133155ZM253.249 12.5847H262.329V46.4375H253.249V12.5847ZM253.12 0.133155H262.458V8.30451H253.12V0.133155ZM267.557 12.5847H278.063L285.651 36.126L293.239 12.5847H303.291L289.931 46.4375H280.852L267.557 12.5847ZM337.54 35.8666C336.934 39.6713 335.4 42.568 332.935 44.5568C330.514 46.5024 326.969 47.4751 322.3 47.4751C316.679 47.4751 312.442 45.9187 309.589 42.8058C306.778 39.6929 305.373 35.283 305.373 29.576C305.373 26.7225 305.784 24.1933 306.605 21.9883C307.427 19.7401 308.573 17.8378 310.042 16.2813C311.556 14.7249 313.35 13.5575 315.425 12.7793C317.5 11.9578 319.792 11.5471 322.3 11.5471C327.488 11.5471 331.379 13.0387 333.973 16.0219C336.61 19.0051 337.929 23.0259 337.929 28.0844V31.7161H314.452C314.539 34.4399 315.231 36.58 316.528 38.1364C317.825 39.6497 319.77 40.4063 322.364 40.4063C325.953 40.4063 328.071 38.893 328.72 35.8666H337.54ZM329.174 25.7497C329.174 23.415 328.59 21.5992 327.423 20.3021C326.299 19.0051 324.526 18.3566 322.105 18.3566C320.894 18.3566 319.835 18.5511 318.927 18.9402C318.019 19.3294 317.241 19.8698 316.593 20.5615C315.987 21.2101 315.512 21.9883 315.166 22.8962C314.82 23.7609 314.625 24.7121 314.582 25.7497H329.174Z" fill="white"/>
<path d="M250.704 86.8359C250.445 89.1706 249.861 91.354 248.953 93.386C248.045 95.3748 246.813 97.1042 245.257 98.5742C243.7 100.044 241.798 101.19 239.55 102.011C237.345 102.833 234.772 103.244 231.832 103.244C228.633 103.244 225.758 102.703 223.207 101.622C220.656 100.541 218.494 98.9633 216.722 96.888C214.949 94.8127 213.566 92.2835 212.571 89.3003C211.62 86.2739 211.145 82.8367 211.145 78.9889C211.145 75.0977 211.663 71.639 212.701 68.6125C213.739 65.5861 215.187 63.0353 217.046 60.96C218.905 58.8847 221.089 57.3067 223.596 56.2258C226.147 55.1449 228.892 54.6045 231.832 54.6045C234.686 54.6045 237.15 54.972 239.226 55.707C241.301 56.442 243.052 57.4796 244.479 58.8199C245.949 60.1601 247.116 61.7598 247.981 63.6189C248.888 65.478 249.58 67.5317 250.056 69.7799L244.219 70.7526C243.83 69.0665 243.311 67.5533 242.663 66.213C242.057 64.8295 241.258 63.6622 240.263 62.711C239.312 61.7598 238.145 61.0465 236.761 60.5709C235.421 60.0521 233.778 59.7927 231.832 59.7927C229.541 59.7927 227.487 60.2682 225.671 61.2194C223.899 62.1273 222.386 63.4244 221.132 65.1105C219.921 66.7534 218.992 68.7638 218.343 71.1418C217.695 73.4764 217.37 76.0705 217.37 78.924C217.37 81.7775 217.695 84.3932 218.343 86.7711C218.992 89.1058 219.921 91.1162 221.132 92.8023C222.386 94.4885 223.899 95.7855 225.671 96.6935C227.487 97.6014 229.563 98.0553 231.897 98.0553C234.016 98.0553 235.81 97.7959 237.28 97.2771C238.793 96.7151 240.025 95.9368 240.977 94.9424C241.971 93.9481 242.749 92.7591 243.311 91.3756C243.873 89.9921 244.284 88.4789 244.543 86.8359H250.704ZM273.724 103.114C271.173 103.114 268.904 102.703 266.915 101.882C264.926 101.06 263.24 99.8928 261.856 98.3796C260.473 96.8664 259.414 95.0073 258.679 92.8023C257.944 90.5974 257.576 88.133 257.576 85.4092C257.576 82.6854 257.965 80.221 258.743 78.0161C259.522 75.8111 260.624 73.9304 262.051 72.3739C263.478 70.8175 265.185 69.6285 267.174 68.8071C269.206 67.9424 271.454 67.51 273.919 67.51C276.426 67.51 278.675 67.9208 280.663 68.7422C282.652 69.5637 284.338 70.7526 285.722 72.3091C287.149 73.8223 288.229 75.6598 288.964 77.8215C289.699 79.9832 290.067 82.426 290.067 85.1498C290.067 87.9168 289.678 90.4028 288.9 92.6078C288.165 94.8127 287.084 96.6935 285.657 98.2499C284.274 99.8064 282.566 101.017 280.534 101.882C278.502 102.703 276.232 103.114 273.724 103.114ZM273.789 98.4445C275.605 98.4445 277.161 98.1202 278.458 97.4717C279.755 96.8232 280.815 95.9152 281.636 94.7479C282.501 93.5806 283.128 92.197 283.517 90.5974C283.906 88.9544 284.101 87.1602 284.101 85.2146C284.101 83.3123 283.906 81.5613 283.517 79.9616C283.128 78.3619 282.501 77.0001 281.636 75.876C280.815 74.7086 279.755 73.8007 278.458 73.1522C277.161 72.5036 275.605 72.1794 273.789 72.1794C271.973 72.1794 270.417 72.5036 269.12 73.1522C267.866 73.8007 266.807 74.7086 265.942 75.876C265.121 77.0001 264.515 78.3619 264.126 79.9616C263.737 81.5613 263.542 83.3339 263.542 85.2795C263.542 87.2251 263.737 88.9977 264.126 90.5974C264.515 92.197 265.121 93.5806 265.942 94.7479C266.763 95.9152 267.823 96.8232 269.12 97.4717C270.417 98.1202 271.973 98.4445 273.789 98.4445ZM298.276 68.5477H303.854V73.671C305.367 71.5957 307.031 70.0609 308.847 69.0665C310.663 68.0289 312.522 67.51 314.424 67.51C316.932 67.51 318.942 68.0505 320.456 69.1313C322.012 70.2122 323.158 71.7687 323.893 73.8007C325.406 71.7254 327.135 70.169 329.081 69.1313C331.027 68.0505 333.102 67.51 335.307 67.51C338.593 67.51 341.122 68.418 342.895 70.2338C344.71 72.0065 345.618 74.8816 345.618 78.8591V102.076H339.976V80.1562C339.976 78.643 339.846 77.3892 339.587 76.3948C339.328 75.3571 338.939 74.5573 338.42 73.9952C337.944 73.39 337.339 72.9792 336.604 72.7631C335.869 72.5036 335.026 72.3739 334.075 72.3739C333.08 72.3739 332.043 72.5469 330.962 72.8928C329.881 73.2386 328.822 73.8439 327.784 74.7086C326.919 75.4436 326.206 76.3299 325.644 77.3676C325.082 78.4052 324.801 79.5941 324.801 80.9344V102.076H319.159V80.221C319.159 77.2811 318.64 75.2491 317.602 74.1249C316.608 72.9576 315.159 72.3739 313.257 72.3739C311.052 72.3739 308.977 73.2819 307.031 75.0977C306.296 75.7895 305.583 76.6758 304.891 77.7567C304.243 78.8375 303.918 80.2859 303.918 82.1017V102.076H298.276V68.5477ZM354.784 68.5477H360.361V73.3467C361.744 71.4444 363.344 69.996 365.16 69.0016C367.019 68.0072 369.181 67.51 371.645 67.51C374.023 67.51 376.098 67.9424 377.871 68.8071C379.687 69.6718 381.178 70.8823 382.346 72.4388C383.556 73.9952 384.443 75.8543 385.005 78.0161C385.61 80.1346 385.913 82.4909 385.913 85.0849C385.913 87.852 385.567 90.3596 384.875 92.6078C384.183 94.8127 383.189 96.6935 381.892 98.2499C380.595 99.8064 379.017 101.017 377.158 101.882C375.342 102.703 373.288 103.114 370.997 103.114C369.094 103.114 367.214 102.746 365.355 102.011C363.539 101.233 361.896 99.8712 360.426 97.9256V114.657H354.784V68.5477ZM360.361 86.2523C360.361 88.414 360.599 90.2731 361.074 91.8296C361.593 93.3428 362.285 94.5966 363.15 95.591C364.014 96.5854 365.052 97.3204 366.263 97.7959C367.473 98.2283 368.792 98.4445 370.218 98.4445C371.602 98.4445 372.877 98.2067 374.045 97.7311C375.255 97.2555 376.293 96.4989 377.158 95.4613C378.022 94.3804 378.692 92.9969 379.168 91.3107C379.687 89.6246 379.946 87.5709 379.946 85.1498C379.946 82.6854 379.665 80.6318 379.103 78.9889C378.584 77.3027 377.893 75.9624 377.028 74.968C376.163 73.9736 375.169 73.2603 374.045 72.8279C372.964 72.3956 371.84 72.1794 370.672 72.1794C369.202 72.1794 367.841 72.4388 366.587 72.9576C365.333 73.4332 364.23 74.1682 363.279 75.1626C362.371 76.1137 361.658 77.3459 361.139 78.8591C360.62 80.3291 360.361 82.0369 360.361 83.9825V86.2523ZM409.174 103.114C406.623 103.114 404.353 102.703 402.364 101.882C400.376 101.06 398.689 99.8928 397.306 98.3796C395.922 96.8664 394.863 95.0073 394.128 92.8023C393.393 90.5974 393.026 88.133 393.026 85.4092C393.026 82.6854 393.415 80.221 394.193 78.0161C394.971 75.8111 396.074 73.9304 397.5 72.3739C398.927 70.8175 400.635 69.6285 402.624 68.8071C404.656 67.9424 406.904 67.51 409.368 67.51C411.876 67.51 414.124 67.9208 416.113 68.7422C418.102 69.5637 419.788 70.7526 421.171 72.3091C422.598 73.8223 423.679 75.6598 424.414 77.8215C425.149 79.9832 425.516 82.426 425.516 85.1498C425.516 87.9168 425.127 90.4028 424.349 92.6078C423.614 94.8127 422.533 96.6935 421.107 98.2499C419.723 99.8064 418.015 101.017 415.983 101.882C413.951 102.703 411.681 103.114 409.174 103.114ZM409.239 98.4445C411.054 98.4445 412.611 98.1202 413.908 97.4717C415.205 96.8232 416.264 95.9152 417.086 94.7479C417.95 93.5806 418.577 92.197 418.966 90.5974C419.356 88.9544 419.55 87.1602 419.55 85.2146C419.55 83.3123 419.356 81.5613 418.966 79.9616C418.577 78.3619 417.95 77.0001 417.086 75.876C416.264 74.7086 415.205 73.8007 413.908 73.1522C412.611 72.5036 411.054 72.1794 409.239 72.1794C407.423 72.1794 405.866 72.5036 404.569 73.1522C403.315 73.8007 402.256 74.7086 401.392 75.876C400.57 77.0001 399.965 78.3619 399.576 79.9616C399.187 81.5613 398.992 83.3339 398.992 85.2795C398.992 87.2251 399.187 88.9977 399.576 90.5974C399.965 92.197 400.57 93.5806 401.392 94.7479C402.213 95.9152 403.272 96.8232 404.569 97.4717C405.866 98.1202 407.423 98.4445 409.239 98.4445ZM437.358 92.2835C437.747 94.6182 438.719 96.2611 440.276 97.2123C441.876 98.1202 444.037 98.5742 446.761 98.5742C449.615 98.5742 451.625 98.0986 452.792 97.1474C454.003 96.153 454.608 94.856 454.608 93.2563C454.608 92.6078 454.522 92.0025 454.349 91.4404C454.219 90.8352 453.938 90.3163 453.506 89.884C453.073 89.4084 452.468 88.9977 451.69 88.6518C450.912 88.3059 449.896 88.0249 448.642 87.8087L444.362 87.1602C442.459 86.8576 440.795 86.4685 439.368 85.9929C437.941 85.5173 436.731 84.912 435.736 84.177C434.742 83.3988 433.985 82.4692 433.466 81.3884C432.991 80.2643 432.753 78.924 432.753 77.3676C432.753 75.8111 433.077 74.4276 433.726 73.217C434.418 72.0065 435.347 70.9904 436.514 70.169C437.725 69.3043 439.13 68.6558 440.73 68.2234C442.373 67.7478 444.145 67.51 446.048 67.51C448.469 67.51 450.479 67.7478 452.079 68.2234C453.722 68.699 455.062 69.3475 456.1 70.169C457.137 70.9904 457.937 71.9632 458.499 73.0873C459.061 74.2114 459.494 75.4004 459.796 76.6542L454.673 77.4973C454.37 76.5893 454.025 75.7895 453.635 75.0977C453.246 74.406 452.727 73.8439 452.079 73.4116C451.43 72.936 450.631 72.5901 449.679 72.3739C448.772 72.1145 447.626 71.9848 446.242 71.9848C444.686 71.9848 443.389 72.1362 442.351 72.4388C441.314 72.6982 440.47 73.0657 439.822 73.5413C439.217 74.0169 438.784 74.5573 438.525 75.1626C438.265 75.7246 438.136 76.3299 438.136 76.9784C438.136 77.6702 438.222 78.2971 438.395 78.8591C438.568 79.378 438.892 79.8535 439.368 80.2859C439.844 80.675 440.492 81.0209 441.314 81.3235C442.135 81.6262 443.194 81.8856 444.491 82.1017L449.355 82.88C453.29 83.5285 456.1 84.6526 457.786 86.2523C459.515 87.852 460.38 90.1866 460.38 93.2563C460.38 94.683 460.099 96.0017 459.537 97.2123C458.975 98.3796 458.132 99.4172 457.008 100.325C455.884 101.19 454.478 101.86 452.792 102.336C451.106 102.854 449.139 103.114 446.891 103.114C444.859 103.114 442.956 102.919 441.184 102.53C439.454 102.141 437.92 101.536 436.579 100.714C435.239 99.8496 434.158 98.7255 433.337 97.342C432.515 95.9585 432.04 94.2723 431.91 92.2835H437.358ZM468.387 68.5477H474.029V102.076H468.387V68.5477ZM468.192 55.7718H474.223V62.3219H468.192V55.7718ZM485.417 73.0225H480.229V68.5477H485.417V59.4035H491.06V68.5477H499.944V73.0225H491.06V92.6726C491.06 94.3155 491.427 95.6342 492.162 96.6286C492.897 97.623 494.021 98.1202 495.534 98.1202C496.486 98.1202 497.307 98.0553 497.999 97.9256C498.734 97.7959 499.404 97.623 500.009 97.4068L500.982 101.752C500.117 102.055 499.166 102.292 498.128 102.465C497.134 102.681 495.945 102.79 494.562 102.79C492.659 102.79 491.124 102.509 489.957 101.946C488.79 101.384 487.86 100.585 487.168 99.5469C486.477 98.5093 486.001 97.2771 485.742 95.8504C485.526 94.4236 485.417 92.8672 485.417 91.181V73.0225ZM520.699 103.114C518.148 103.114 515.878 102.703 513.89 101.882C511.901 101.06 510.215 99.8928 508.831 98.3796C507.448 96.8664 506.388 95.0073 505.653 92.8023C504.918 90.5974 504.551 88.133 504.551 85.4092C504.551 82.6854 504.94 80.221 505.718 78.0161C506.496 75.8111 507.599 73.9304 509.026 72.3739C510.452 70.8175 512.16 69.6285 514.149 68.8071C516.181 67.9424 518.429 67.51 520.894 67.51C523.401 67.51 525.649 67.9208 527.638 68.7422C529.627 69.5637 531.313 70.7526 532.697 72.3091C534.123 73.8223 535.204 75.6598 535.939 77.8215C536.674 79.9832 537.042 82.426 537.042 85.1498C537.042 87.9168 536.653 90.4028 535.874 92.6078C535.139 94.8127 534.058 96.6935 532.632 98.2499C531.248 99.8064 529.54 101.017 527.508 101.882C525.476 102.703 523.207 103.114 520.699 103.114ZM520.764 98.4445C522.58 98.4445 524.136 98.1202 525.433 97.4717C526.73 96.8232 527.789 95.9152 528.611 94.7479C529.476 93.5806 530.103 92.197 530.492 90.5974C530.881 88.9544 531.075 87.1602 531.075 85.2146C531.075 83.3123 530.881 81.5613 530.492 79.9616C530.103 78.3619 529.476 77.0001 528.611 75.876C527.789 74.7086 526.73 73.8007 525.433 73.1522C524.136 72.5036 522.58 72.1794 520.764 72.1794C518.948 72.1794 517.392 72.5036 516.094 73.1522C514.841 73.8007 513.781 74.7086 512.917 75.876C512.095 77.0001 511.49 78.3619 511.101 79.9616C510.712 81.5613 510.517 83.3339 510.517 85.2795C510.517 87.2251 510.712 88.9977 511.101 90.5974C511.49 92.197 512.095 93.5806 512.917 94.7479C513.738 95.9152 514.797 96.8232 516.094 97.4717C517.392 98.1202 518.948 98.4445 520.764 98.4445ZM545.251 68.5477H550.828V73.7358C552.082 71.8767 553.552 70.45 555.238 69.4556C556.924 68.4612 558.719 67.964 560.621 67.964C561.788 67.964 562.783 68.0505 563.604 68.2234L562.891 73.4764C562.458 73.39 562.026 73.3251 561.594 73.2819C561.161 73.1954 560.686 73.1522 560.167 73.1522C559.129 73.1522 558.07 73.3467 556.989 73.7358C555.908 74.0817 554.892 74.687 553.941 75.5517C552.99 76.3732 552.233 77.3243 551.671 78.4052C551.153 79.4861 550.893 80.7399 550.893 82.1666V102.076H545.251V68.5477Z" fill="white"/>
</svg>
