<svg width="2491" height="634" viewBox="0 0 2491 634" fill="none" xmlns="http://www.w3.org/2000/svg">
<rect width="2491" height="634" fill="black"/>
<rect x="0.401245" y="0.463928" width="2489.7" height="633.536" rx="5" fill="#001A72"/>
<path fill-rule="evenodd" clip-rule="evenodd" d="M987.002 71.1945H945.483V270.15H1076.73L1081.19 234.483H987.002V71.1945ZM1147.22 124.695H1108.21V270.15H1147.22V124.695ZM1147.78 71.1945H1107.65V106.304H1147.78V71.1945ZM1214.83 124.695H1169.69L1226.81 270.15H1265.82L1323.22 124.695H1280.03L1247.43 225.845L1214.83 124.695ZM1450.6 262.069C1461.18 253.524 1467.78 241.077 1470.38 224.73H1432.48C1429.7 237.734 1420.59 244.235 1405.18 244.235C1394.03 244.235 1385.67 240.984 1380.1 234.483C1374.52 227.795 1371.55 218.6 1371.18 206.896H1472.05V191.292C1472.05 169.558 1466.39 152.281 1455.05 139.463C1443.91 126.646 1427.19 120.237 1404.9 120.237C1394.12 120.237 1384.28 122.001 1375.36 125.531C1366.44 128.875 1358.73 133.89 1352.23 140.578C1345.92 147.266 1340.99 155.439 1337.46 165.099C1333.93 174.573 1332.17 185.441 1332.17 197.701C1332.17 222.222 1338.21 241.17 1350.28 254.545C1362.54 267.921 1380.75 274.608 1404.9 274.608C1424.96 274.608 1440.19 270.428 1450.6 262.069ZM1426.91 157.854C1431.93 163.427 1434.43 171.229 1434.43 181.261H1371.74C1371.92 176.802 1372.76 172.716 1374.25 169C1375.73 165.099 1377.77 161.755 1380.38 158.969C1383.16 155.997 1386.51 153.675 1390.41 152.003C1394.31 150.331 1398.86 149.495 1404.06 149.495C1414.46 149.495 1422.08 152.281 1426.91 157.854ZM1102.64 471.873C1106.54 463.142 1109.05 453.761 1110.16 443.729H1083.69C1082.58 450.788 1080.81 457.29 1078.4 463.235C1075.98 469.179 1072.64 474.288 1068.37 478.56C1064.28 482.833 1058.99 486.177 1052.48 488.592C1046.17 490.821 1038.46 491.935 1029.36 491.935C1019.33 491.935 1010.41 489.985 1002.61 486.084C994.99 482.183 988.488 476.61 983.101 469.365C977.899 462.12 973.905 453.482 971.119 443.451C968.332 433.233 966.939 421.995 966.939 409.734C966.939 397.473 968.332 386.328 971.119 376.296C973.905 366.079 977.899 357.441 983.101 350.382C988.488 343.137 994.99 337.564 1002.61 333.663C1010.41 329.576 1019.23 327.533 1029.08 327.533C1037.44 327.533 1044.5 328.647 1050.26 330.876C1056.2 332.92 1061.22 335.985 1065.3 340.072C1069.57 344.159 1073.01 349.174 1075.61 355.119C1078.4 360.878 1080.63 367.379 1082.3 374.624L1107.38 370.445C1105.33 360.785 1102.36 351.961 1098.46 343.973C1094.75 335.985 1089.73 329.112 1083.41 323.353C1077.28 317.594 1069.76 313.136 1060.84 309.978C1051.93 306.82 1041.34 305.241 1029.08 305.241C1016.45 305.241 1004.65 307.563 993.689 312.207C982.915 316.851 973.534 323.632 965.546 332.548C957.558 341.465 951.335 352.425 946.876 365.429C942.418 378.432 940.189 393.294 940.189 410.013C940.189 426.546 942.232 441.314 946.319 454.318C950.592 467.136 956.536 478.003 964.153 486.92C971.769 495.836 981.057 502.617 992.017 507.261C1002.98 511.905 1015.33 514.227 1029.08 514.227C1041.71 514.227 1052.76 512.463 1062.24 508.933C1071.9 505.403 1080.07 500.481 1086.76 494.165C1093.45 487.849 1098.74 480.418 1102.64 471.873ZM1179.82 508.376C1188.36 511.905 1198.11 513.67 1209.07 513.67C1219.85 513.67 1229.6 511.905 1238.33 508.376C1247.06 504.66 1254.4 499.459 1260.35 492.771C1266.48 486.084 1271.12 478.003 1274.28 468.529C1277.62 459.055 1279.29 448.373 1279.29 436.484C1279.29 424.781 1277.71 414.285 1274.56 404.997C1271.4 395.709 1266.75 387.814 1260.62 381.312C1254.68 374.624 1247.43 369.516 1238.89 365.986C1230.34 362.457 1220.68 360.692 1209.91 360.692C1199.32 360.692 1189.66 362.549 1180.93 366.265C1172.39 369.794 1165.05 374.903 1158.92 381.59C1152.79 388.278 1148.05 396.359 1144.71 405.833C1141.36 415.307 1139.69 425.896 1139.69 437.599C1139.69 449.302 1141.27 459.891 1144.43 469.365C1147.59 478.839 1152.14 486.827 1158.08 493.329C1164.03 499.83 1171.27 504.846 1179.82 508.376ZM1229.42 489.428C1223.84 492.214 1217.15 493.607 1209.35 493.607C1201.55 493.607 1194.86 492.214 1189.29 489.428C1183.72 486.641 1179.17 482.74 1175.64 477.724C1172.11 472.709 1169.51 466.764 1167.83 459.891C1166.16 453.017 1165.33 445.401 1165.33 437.042C1165.33 428.682 1166.16 421.066 1167.83 414.192C1169.51 407.319 1172.11 401.467 1175.64 396.638C1179.35 391.622 1183.9 387.721 1189.29 384.934C1194.86 382.148 1201.55 380.755 1209.35 380.755C1217.15 380.755 1223.84 382.148 1229.42 384.934C1234.99 387.721 1239.54 391.622 1243.07 396.638C1246.78 401.467 1249.48 407.319 1251.15 414.192C1252.82 421.066 1253.66 428.589 1253.66 436.763C1253.66 445.122 1252.82 452.832 1251.15 459.891C1249.48 466.764 1246.78 472.709 1243.07 477.724C1239.54 482.74 1234.99 486.641 1229.42 489.428ZM1338.53 365.15H1314.57V509.212H1338.81V423.388C1338.81 415.586 1340.2 409.362 1342.99 404.718C1345.96 400.074 1349.03 396.266 1352.18 393.294C1360.54 385.492 1369.46 381.59 1378.93 381.59C1387.11 381.59 1393.33 384.098 1397.6 389.114C1402.06 393.944 1404.29 402.675 1404.29 415.307V509.212H1428.53V418.372C1428.53 412.613 1429.74 407.505 1432.16 403.046C1434.57 398.588 1437.64 394.78 1441.35 391.622C1445.81 387.907 1450.36 385.306 1455.01 383.82C1459.65 382.334 1464.11 381.59 1468.38 381.59C1472.47 381.59 1476.09 382.148 1479.25 383.262C1482.41 384.191 1485.01 385.956 1487.05 388.557C1489.28 390.972 1490.95 394.408 1492.07 398.867C1493.18 403.139 1493.74 408.527 1493.74 415.028V509.212H1517.98V409.455C1517.98 392.365 1514.08 380.011 1506.28 372.395C1498.66 364.593 1487.79 360.692 1473.68 360.692C1464.2 360.692 1455.28 363.014 1446.92 367.658C1438.57 372.116 1431.13 378.804 1424.63 387.721C1421.47 378.99 1416.55 372.302 1409.86 367.658C1403.36 363.014 1394.72 360.692 1383.95 360.692C1375.78 360.692 1367.79 362.921 1359.99 367.379C1352.18 371.652 1345.03 378.247 1338.53 387.163V365.15ZM1581.32 365.15H1557.36V563.269H1581.6V491.378C1587.92 499.738 1594.98 505.589 1602.78 508.933C1610.77 512.091 1618.85 513.67 1627.02 513.67C1636.87 513.67 1645.69 511.905 1653.49 508.376C1661.48 504.66 1668.26 499.459 1673.84 492.771C1679.41 486.084 1683.68 478.003 1686.65 468.529C1689.63 458.869 1691.11 448.095 1691.11 436.206C1691.11 425.06 1689.81 414.935 1687.21 405.833C1684.8 396.545 1680.99 388.557 1675.79 381.869C1670.77 375.182 1664.36 369.98 1656.56 366.265C1648.94 362.549 1640.03 360.692 1629.81 360.692C1619.22 360.692 1609.93 362.828 1601.94 367.101C1594.14 371.373 1587.27 377.597 1581.32 385.77V365.15ZM1584.39 465.185C1582.35 458.498 1581.32 450.51 1581.32 441.221V431.469C1581.32 423.109 1582.44 415.771 1584.67 409.455C1586.9 402.954 1589.96 397.659 1593.86 393.572C1597.95 389.3 1602.69 386.142 1608.08 384.098C1613.46 381.869 1619.31 380.755 1625.63 380.755C1630.65 380.755 1635.48 381.683 1640.12 383.541C1644.95 385.399 1649.22 388.464 1652.94 392.736C1656.65 397.009 1659.63 402.768 1661.85 410.013C1664.27 417.072 1665.48 425.896 1665.48 436.484C1665.48 446.887 1664.36 455.711 1662.13 462.956C1660.09 470.201 1657.21 476.145 1653.49 480.789C1649.78 485.248 1645.32 488.499 1640.12 490.542C1635.1 492.586 1629.62 493.607 1623.68 493.607C1617.55 493.607 1611.88 492.678 1606.68 490.821C1601.48 488.777 1597.02 485.619 1593.31 481.347C1589.59 477.074 1586.62 471.687 1584.39 465.185ZM1761.8 508.376C1770.35 511.905 1780.1 513.67 1791.06 513.67C1801.83 513.67 1811.59 511.905 1820.32 508.376C1829.05 504.66 1836.39 499.459 1842.33 492.771C1848.46 486.084 1853.1 478.003 1856.26 468.529C1859.61 459.055 1861.28 448.373 1861.28 436.484C1861.28 424.781 1859.7 414.285 1856.54 404.997C1853.38 395.709 1848.74 387.814 1842.61 381.312C1836.66 374.624 1829.42 369.516 1820.87 365.986C1812.33 362.457 1802.67 360.692 1791.89 360.692C1781.31 360.692 1771.65 362.549 1762.91 366.265C1754.37 369.794 1747.03 374.903 1740.9 381.59C1734.77 388.278 1730.03 396.359 1726.69 405.833C1723.35 415.307 1721.67 425.896 1721.67 437.599C1721.67 449.302 1723.25 459.891 1726.41 469.365C1729.57 478.839 1734.12 486.827 1740.07 493.329C1746.01 499.83 1753.25 504.846 1761.8 508.376ZM1811.4 489.428C1805.83 492.214 1799.14 493.607 1791.34 493.607C1783.53 493.607 1776.85 492.214 1771.27 489.428C1765.7 486.641 1761.15 482.74 1757.62 477.724C1754.09 472.709 1751.49 466.764 1749.82 459.891C1748.15 453.017 1747.31 445.401 1747.31 437.042C1747.31 428.682 1748.15 421.066 1749.82 414.192C1751.49 407.319 1754.09 401.467 1757.62 396.638C1761.34 391.622 1765.89 387.721 1771.27 384.934C1776.85 382.148 1783.53 380.755 1791.34 380.755C1799.14 380.755 1805.83 382.148 1811.4 384.934C1816.97 387.721 1821.52 391.622 1825.05 396.638C1828.77 401.467 1831.46 407.319 1833.13 414.192C1834.81 421.066 1835.64 428.589 1835.64 436.763C1835.64 445.122 1834.81 452.832 1833.13 459.891C1831.46 466.764 1828.77 472.709 1825.05 477.724C1821.52 482.74 1816.97 486.641 1811.4 489.428ZM1924.69 488.313C1918.01 484.226 1913.83 477.167 1912.16 467.136H1888.75C1889.31 475.681 1891.35 482.926 1894.88 488.87C1898.41 494.815 1903.05 499.645 1908.81 503.36C1914.57 506.89 1921.16 509.49 1928.6 511.162C1936.21 512.834 1944.39 513.67 1953.12 513.67C1962.78 513.67 1971.23 512.555 1978.47 510.326C1985.72 508.283 1991.76 505.403 1996.59 501.688C2001.42 497.787 2005.04 493.329 2007.45 488.313C2009.87 483.112 2011.08 477.446 2011.08 471.315C2011.08 458.126 2007.36 448.095 1999.93 441.221C1992.68 434.348 1980.61 429.518 1963.71 426.732L1942.81 423.388C1937.23 422.459 1932.68 421.344 1929.15 420.044C1925.62 418.744 1922.84 417.258 1920.79 415.586C1918.75 413.728 1917.36 411.685 1916.61 409.455C1915.87 407.04 1915.5 404.347 1915.5 401.375C1915.5 398.588 1916.06 395.987 1917.17 393.572C1918.29 390.972 1920.14 388.65 1922.74 386.606C1925.53 384.563 1929.15 382.984 1933.61 381.869C1938.07 380.569 1943.64 379.919 1950.33 379.919C1956.27 379.919 1961.2 380.476 1965.1 381.59C1969.19 382.519 1972.62 384.005 1975.41 386.049C1978.19 387.907 1980.42 390.321 1982.1 393.294C1983.77 396.266 1985.25 399.703 1986.55 403.604L2008.57 399.981C2007.27 394.594 2005.41 389.486 2002.99 384.656C2000.58 379.826 1997.14 375.646 1992.68 372.116C1988.23 368.587 1982.47 365.8 1975.41 363.757C1968.54 361.714 1959.9 360.692 1949.49 360.692C1941.32 360.692 1933.7 361.714 1926.64 363.757C1919.77 365.615 1913.73 368.401 1908.53 372.116C1903.52 375.646 1899.52 380.011 1896.55 385.213C1893.76 390.414 1892.37 396.359 1892.37 403.046C1892.37 409.734 1893.39 415.493 1895.44 420.323C1897.67 424.967 1900.92 428.961 1905.19 432.305C1909.46 435.463 1914.66 438.063 1920.79 440.107C1926.92 442.15 1934.08 443.822 1942.25 445.122L1960.64 447.909C1966.03 448.838 1970.39 450.045 1973.74 451.531C1977.08 453.017 1979.68 454.782 1981.54 456.826C1983.4 458.683 1984.6 460.912 1985.16 463.513C1985.9 465.928 1986.28 468.529 1986.28 471.315C1986.28 478.189 1983.67 483.762 1978.47 488.034C1973.46 492.121 1964.82 494.165 1952.56 494.165C1940.86 494.165 1931.57 492.214 1924.69 488.313ZM2069.72 365.15H2045.48V509.212H2069.72V365.15ZM2070.56 310.256H2044.64V338.4H2070.56V310.256ZM2096.36 384.377H2118.65V462.399C2118.65 469.644 2119.12 476.331 2120.05 482.461C2121.16 488.592 2123.2 493.886 2126.18 498.344C2129.15 502.803 2133.14 506.239 2138.16 508.654C2143.17 511.069 2149.77 512.277 2157.94 512.277C2163.89 512.277 2169 511.812 2173.27 510.884C2177.73 510.14 2181.81 509.119 2185.53 507.818L2181.35 489.149C2178.75 490.078 2175.87 490.821 2172.71 491.378C2169.74 491.935 2166.21 492.214 2162.12 492.214C2155.62 492.214 2150.79 490.078 2147.63 485.805C2144.47 481.532 2142.9 475.867 2142.9 468.808V384.377H2181.07V365.15H2142.9V325.861H2118.65V365.15H2096.36V384.377ZM2240.99 508.376C2249.53 511.905 2259.29 513.67 2270.25 513.67C2281.02 513.67 2290.77 511.905 2299.51 508.376C2308.24 504.66 2315.57 499.459 2321.52 492.771C2327.65 486.084 2332.29 478.003 2335.45 468.529C2338.79 459.055 2340.47 448.373 2340.47 436.484C2340.47 424.781 2338.89 414.285 2335.73 404.997C2332.57 395.709 2327.93 387.814 2321.8 381.312C2315.85 374.624 2308.61 369.516 2300.06 365.986C2291.52 362.457 2281.86 360.692 2271.08 360.692C2260.49 360.692 2250.83 362.549 2242.1 366.265C2233.56 369.794 2226.22 374.903 2220.09 381.59C2213.96 388.278 2209.22 396.359 2205.88 405.833C2202.54 415.307 2200.86 425.896 2200.86 437.599C2200.86 449.302 2202.44 459.891 2205.6 469.365C2208.76 478.839 2213.31 486.827 2219.25 493.329C2225.2 499.83 2232.44 504.846 2240.99 508.376ZM2290.59 489.428C2285.02 492.214 2278.33 493.607 2270.53 493.607C2262.72 493.607 2256.04 492.214 2250.46 489.428C2244.89 486.641 2240.34 482.74 2236.81 477.724C2233.28 472.709 2230.68 466.764 2229.01 459.891C2227.34 453.017 2226.5 445.401 2226.5 437.042C2226.5 428.682 2227.34 421.066 2229.01 414.192C2230.68 407.319 2233.28 401.467 2236.81 396.638C2240.52 391.622 2245.08 387.721 2250.46 384.934C2256.04 382.148 2262.72 380.755 2270.53 380.755C2278.33 380.755 2285.02 382.148 2290.59 384.934C2296.16 387.721 2300.71 391.622 2304.24 396.638C2307.96 401.467 2310.65 407.319 2312.32 414.192C2314 421.066 2314.83 428.589 2314.83 436.763C2314.83 445.122 2314 452.832 2312.32 459.891C2310.65 466.764 2307.96 472.709 2304.24 477.724C2300.71 482.74 2296.16 486.641 2290.59 489.428ZM2399.7 365.15H2375.74V509.212H2399.98V423.666C2399.98 417.536 2401.1 412.149 2403.33 407.505C2405.74 402.861 2408.99 398.774 2413.08 395.244C2417.17 391.529 2421.53 388.928 2426.18 387.442C2430.82 385.77 2435.37 384.934 2439.83 384.934C2442.06 384.934 2444.1 385.12 2445.96 385.492C2447.82 385.677 2449.67 385.956 2451.53 386.328L2454.6 363.757C2451.07 363.014 2446.8 362.642 2441.78 362.642C2433.61 362.642 2425.9 364.779 2418.65 369.051C2411.41 373.324 2405.09 379.454 2399.7 387.442V365.15Z" fill="white"/>
<path d="M161.176 130.304C169.691 121.789 169.691 107.983 161.176 99.4682C152.661 90.9531 138.856 90.9531 130.341 99.4682L58.5228 171.286C55.6438 173.661 53.0033 176.315 50.6425 179.206C49.8297 180.105 49.1051 181.055 48.4687 182.045C41.8065 191.339 37.8846 202.731 37.8846 215.038V489.199C37.8846 520.508 63.2659 545.89 94.5753 545.89H580.154C598.244 545.89 614.356 537.416 624.735 524.222L691.663 457.859C700.214 449.38 700.272 435.574 691.793 427.023C683.314 418.472 669.509 418.414 660.958 426.893L636.845 450.803H130.341L133.133 158.347L161.176 130.304Z" fill="white"/>
<path d="M854.255 153.701C854.255 145.419 850.147 137.676 843.288 133.033C836.43 128.389 827.715 127.45 820.025 130.526L686.124 184.087C673.325 189.207 667.099 203.733 672.219 216.532C677.338 229.331 691.865 235.556 704.664 230.437L804.335 190.568V384.636L704.664 344.768C691.865 339.648 677.338 345.874 672.219 358.673C667.099 371.472 673.325 385.998 686.124 391.118L820.025 444.678C827.715 447.754 836.43 446.816 843.288 442.172C850.147 437.529 854.255 429.786 854.255 421.504V153.701Z" fill="white"/>
<path fill-rule="evenodd" clip-rule="evenodd" d="M649.927 132.182H164.348C157.123 132.182 151.266 138.04 151.266 145.265V419.426C151.266 426.651 157.123 432.508 164.348 432.508H649.927C657.152 432.508 663.009 426.651 663.009 419.426V145.265C663.009 138.04 657.152 132.182 649.927 132.182ZM164.348 88.5742C133.039 88.5742 107.658 113.955 107.658 145.265V419.426C107.658 450.735 133.039 476.116 164.348 476.116H649.927C681.236 476.116 706.618 450.735 706.618 419.426V145.265C706.618 113.955 681.236 88.5742 649.927 88.5742H164.348Z" fill="white"/>
<path fill-rule="evenodd" clip-rule="evenodd" d="M462.689 216.177C467.525 206.772 463.821 195.227 454.415 190.391C445.01 185.556 433.465 189.26 428.629 198.665L351.584 348.514C346.748 357.919 350.452 369.464 359.857 374.3C369.263 379.136 380.808 375.431 385.643 366.026L462.689 216.177ZM310.681 369.372C303.994 377.566 291.932 378.787 283.738 372.1L206.48 309.046C189.581 295.254 189.581 269.431 206.48 255.639L283.738 192.585C291.932 185.898 303.994 187.12 310.681 195.313C317.368 203.506 316.147 215.569 307.954 222.256L234.331 282.343L307.954 342.429C316.147 349.116 317.368 361.179 310.681 369.372ZM503.59 195.318C510.277 187.124 522.34 185.903 530.533 192.59L607.795 255.643C624.695 269.435 624.695 295.259 607.795 309.051L530.533 372.105C522.34 378.792 510.277 377.57 503.59 369.377C496.904 361.183 498.125 349.12 506.319 342.434L579.944 282.347L506.319 222.261C498.125 215.574 496.904 203.511 503.59 195.318Z" fill="white"/>
</svg>
