<svg width="229" height="116" viewBox="0 0 229 116" fill="none" xmlns="http://www.w3.org/2000/svg">
<g clip-path="url(#clip0_1_2526)">
<path d="M26.7999 1.69995H226.9V89.2L201.9 114.3H1.69995L1.79995 26.7L26.7999 1.69995Z" fill="white"/>
<path fill-rule="evenodd" clip-rule="evenodd" d="M26.1786 0.199951H228.4V89.8195L202.523 115.8H0.198242L0.300664 26.0779L26.1786 0.199951ZM3.29925 27.322L25.3 5.32117V88.5785L3.2041 110.674L3.29925 27.322ZM5.32127 112.8H201.277L223.289 90.7H27.4213L5.32127 112.8ZM225.4 3.19995V87.7H28.3V3.19995H225.4Z" fill="#001A72"/>
<path d="M63.7001 36.5999C63.7001 39.5999 61.7001 42.1999 56.9001 42.1999C54.8001 42.1999 53.1001 41.6999 51.6001 41.0999V36.8999C53.2001 37.6999 55.1001 38.1999 56.8001 38.1999C58.4001 38.1999 59.2001 37.6999 59.2001 36.7999C59.2001 33.9999 51.6001 34.8999 51.6001 29.1999C51.6001 25.6999 54.4001 23.5999 58.3001 23.5999C59.9001 23.5999 61.4001 23.9999 63.0001 24.8999V29.1999C60.9001 27.8999 59.4001 27.4999 58.2001 27.4999C56.8001 27.4999 56.0001 27.9999 56.0001 28.8999C55.9001 31.5999 63.7001 30.5999 63.7001 36.5999Z" fill="#001A72"/>
<path d="M67.5 32.8999C67.5 27.7999 71.7 23.5999 76.8 23.5999C81.9 23.5999 86.1 27.7999 86.1 32.8999C86.1 37.9999 81.9 42.1999 76.8 42.1999C71.7 42.1999 67.5 37.9999 67.5 32.8999ZM81.5 32.8999C81.5 30.0999 79.4 27.9999 76.8 27.9999C74.2 27.9999 72 30.0999 72 32.8999C72 35.6999 74.1 37.7999 76.7 37.7999C79.3 37.7999 81.5 35.6999 81.5 32.8999Z" fill="#001A72"/>
<path d="M96.5 22.5V24H102.4L100.4 28.2H96.6V41.7999H92.3V28.2H89.3V24H92.3V22.3C92.3 16.9 95.1 14.2 99.5 14.2C100.6 14.2 101.6 14.4 102.5 14.6V18.8C101.7 18.5 100.8 18.4 99.9 18.4C97.4 18.3 96.5 19.9 96.5 22.5Z" fill="#001A72"/>
<path d="M111.3 28.1999V35.2999C111.3 37.1999 112.4 37.9999 114.1 37.9999C115.2 37.9999 116.3 37.6999 117.2 37.0999V41.3999C116 41.8999 114.9 42.1999 113.3 42.1999C109.4 42.1999 107 40.0999 107 35.7999V28.1999H104.4V23.9999H107V19.4999L111.3 18.3999V23.9999H117.2V28.1999H111.3Z" fill="#001A72"/>
<path d="M148.4 24L142.7 41.8H138.4L134.5 29.6L130.5 41.8H126L120.3 24H125.2L128.4 35.9L132.2 24H136.5L140.3 35.9L143.5 24H148.4Z" fill="#001A72"/>
<path d="M150.6 32.8999C150.6 27.7999 154.3 23.5999 159.4 23.5999C161.4 23.5999 163 24.1999 164.2 25.1999V23.9999H168.5V41.7999H164.3V40.3999C163.1 41.4999 161.4 42.1999 159.3 42.1999C154.4 42.1999 150.6 37.9999 150.6 32.8999ZM164.6 32.8999C164.6 30.0999 162.5 27.9999 159.9 27.9999C157.3 27.9999 155.2 30.0999 155.2 32.8999C155.2 35.6999 157.3 37.7999 159.9 37.7999C162.5 37.7999 164.6 35.6999 164.6 32.8999Z" fill="#001A72"/>
<path d="M174.6 24H178.8V26.5C180.1 24.1 182.5 23.7 184.6 23.7V28.7999C181.6 27.9999 178.9 29.7 178.9 33.5V41.7999H174.6V24Z" fill="#001A72"/>
<path d="M198.1 37.9999C199.8 37.9999 201.8 37.6999 203.8 36.8999L201.6 41.3999C200.6 41.7999 199.1 42.1999 197.3 42.1999C191 42.1999 187.2 38.2999 187.2 32.8999C187.2 27.7999 191 23.5999 196.5 23.5999C200.2 23.5999 203.2 25.4999 204.4 27.8999V34.2999H191.8C192.5 36.4999 194.5 37.9999 198.1 37.9999ZM191.8 30.9999H201.1C200.5 28.8999 198.7 27.5999 196.4 27.5999C194.2 27.5999 192.5 28.9999 191.8 30.9999Z" fill="#001A72"/>
<path d="M76.4999 56.7999V68.4999H72.1999V57.4999C72.1999 55.5999 70.7999 54.4999 69.3999 54.4999C67.8999 54.4999 66.5999 55.5999 66.5999 57.4999V68.4999H62.2999V57.4999C62.2999 55.5999 60.8999 54.4999 59.4999 54.4999C57.9999 54.4999 56.6999 55.5999 56.6999 57.4999V68.4999H52.3999V50.7999H56.5999V52.0999C57.8999 50.7999 59.1999 50.3999 60.8999 50.3999C62.7999 50.3999 64.3999 51.1999 65.4999 52.6999C66.9999 51.0999 68.7999 50.3999 70.8999 50.3999C73.8999 50.3999 76.4999 53.0999 76.4999 56.7999Z" fill="#001A72"/>
<path d="M81 59.6999C81 54.5999 84.7 50.3999 89.8 50.3999C91.8 50.3999 93.4 50.9999 94.6 51.9999V50.7999H99V68.5999H94.8V67.1999C93.6 68.2999 91.9 68.9999 89.8 68.9999C84.7 68.8999 81 64.7999 81 59.6999ZM95 59.6999C95 56.8999 92.9 54.7999 90.3 54.7999C87.7 54.7999 85.6 56.8999 85.6 59.6999C85.6 62.4999 87.7 64.5999 90.3 64.5999C92.9 64.5999 95 62.4999 95 59.6999Z" fill="#001A72"/>
<path d="M104.8 50.7999H109V52.0999C110.3 50.7999 112 50.3999 113.7 50.3999C117.4 50.3999 120.4 53.1999 120.4 56.9999V68.4999H116.1V57.9999C116.1 56.0999 114.6 54.5999 112.7 54.5999C110.8 54.5999 109.3 56.0999 109.3 57.9999V68.5999H105V50.7999H104.8Z" fill="#001A72"/>
<path d="M137.6 63.3999C137.6 66.3999 135.6 68.9999 130.8 68.9999C128.7 68.9999 127 68.4999 125.5 67.8999V63.6999C127.1 64.4999 129 64.9999 130.7 64.9999C132.3 64.9999 133.1 64.4999 133.1 63.5999C133.1 60.7999 125.5 61.6999 125.5 55.9999C125.5 52.4999 128.3 50.3999 132.2 50.3999C133.8 50.3999 135.3 50.7999 136.9 51.6999V55.9999C134.8 54.6999 133.3 54.2999 132.1 54.2999C130.7 54.2999 129.9 54.7999 129.9 55.6999C129.9 58.2999 137.6 57.2999 137.6 63.3999Z" fill="#001A72"/>
<path d="M147 50.8V68.6H142.7V50.8H147Z" fill="#001A72"/>
<path d="M151.5 59.6999C151.5 54.5999 155.7 50.3999 160.8 50.3999C165.9 50.3999 170.1 54.5999 170.1 59.6999C170.1 64.7999 165.9 68.9999 160.8 68.9999C155.7 68.9999 151.5 64.7999 151.5 59.6999ZM165.5 59.6999C165.5 56.8999 163.4 54.7999 160.8 54.7999C158.2 54.7999 156.1 56.8999 156.1 59.6999C156.1 62.4999 158.2 64.5999 160.8 64.5999C163.4 64.5999 165.5 62.4999 165.5 59.6999Z" fill="#001A72"/>
<path d="M174.5 50.7999H178.7V52.0999C180 50.7999 181.7 50.3999 183.4 50.3999C187.1 50.3999 190.1 53.1999 190.1 56.9999V68.4999H185.8V57.9999C185.8 56.0999 184.3 54.5999 182.4 54.5999C180.5 54.5999 179 56.0999 179 57.9999V68.5999H174.7V50.7999H174.5Z" fill="#001A72"/>
<path d="M198.6 63.7V64.4H197V68.5999H196.2V64.4H194.7V63.7H198.6Z" fill="#001A72"/>
<path d="M200.3 63.7L201.9 67.5999L203.4 63.7H204.4V68.5999H203.6V65L202.1 68.5999H201.4L199.9 65V68.5999H199.1V63.7C199.1 63.7 200.3 63.7 200.3 63.7Z" fill="#001A72"/>
</g>
<defs>
<clipPath id="clip0_1_2526">
<rect width="229" height="116" fill="white"/>
</clipPath>
</defs>
</svg>
